<svg width="300" height="300" viewBox="0 0 300 300" fill="none" xmlns="http://www.w3.org/2000/svg">
<path d="M284.606 65.0427C280.865 65.0427 277.258 65.9779 273.651 65.8443C273.651 65.8443 273.651 65.9779 273.517 65.9779C273.517 65.9779 273.517 65.8443 273.384 65.8443C272.983 65.5771 272.448 65.3099 272.048 65.1763C271.914 65.0427 271.647 65.0427 271.513 64.9091C271.38 64.7755 268.841 64.1075 268.44 63.8403C266.971 63.7067 265.501 63.5731 264.032 63.8403C263.764 63.8403 263.497 63.8403 263.096 63.9739C262.428 64.2411 259.756 65.0427 259.356 65.1763C259.222 65.3099 256.684 66.3787 256.55 66.5123C254.145 67.9819 251.874 69.3179 249.603 71.0547C249.068 71.4555 245.328 73.9939 245.194 74.1275C244.659 74.5283 242.388 75.7307 242.255 75.8643C241.987 75.9979 241.854 76.1315 241.587 76.2651C241.453 76.3987 241.186 76.3987 241.052 76.5323C240.651 76.6659 240.518 76.7995 239.85 76.9331C239.182 77.2003 239.85 76.9331 239.182 77.2003C238.781 77.3339 238.647 77.3339 238.514 77.4675C238.514 77.4675 238.514 77.4675 238.38 77.4675C237.445 77.6011 237.178 77.6011 236.643 77.4675C235.842 77.2003 235.441 76.9331 235.307 76.7995C235.04 76.5323 234.372 75.8643 234.372 74.7955C234.372 74.6619 234.372 74.6619 234.372 74.5283C234.506 74.1275 234.506 73.5931 234.506 72.6579C234.639 68.9171 235.307 68.2491 235.174 65.5771C235.04 63.0387 233.571 60.5002 232.368 58.229C231.166 55.9578 228.627 53.6866 225.688 52.3506C222.883 51.0146 221.012 49.9458 214.199 47.9418L208.32 46.4722C208.32 46.4722 200.438 44.869 200.037 44.7354C198.701 44.4682 197.365 44.3346 196.029 44.0674C194.826 43.9338 193.49 43.8002 192.288 43.6666C190.418 43.3994 188.547 43.1322 186.543 43.1322L184.272 42.865C182.802 42.7314 175.855 42.197 173.584 42.0634C168.774 41.6626 163.965 41.6626 159.289 41.2618C156.884 41.1282 154.479 41.2618 151.941 40.9946C149.402 40.7274 138.18 40.3266 136.577 40.4602C136.71 40.4602 135.374 40.4602 133.637 40.4602C131.099 40.4602 125.488 40.3266 125.221 40.3266C123.617 40.193 122.148 40.3266 120.545 40.3266C112.395 40.3266 105.314 40.193 97.1644 40.3266C96.8972 40.3266 94.7596 40.3266 93.4236 40.3266C90.0836 40.3266 88.614 40.4602 85.274 40.4602C84.606 40.4602 83.938 40.4602 83.27 40.4602C82.602 40.4602 82.0676 40.4602 81.3995 40.4602C80.7315 40.4602 80.1971 40.4602 79.5291 40.4602C78.5939 40.5938 78.9947 40.5938 78.3267 40.7274C77.5251 40.9946 78.1931 40.7274 77.5251 40.9946C76.8571 41.2618 77.2579 41.1282 76.7235 41.2618C75.9219 41.6626 75.6547 41.6626 75.3875 41.9298H75.2539L75.3875 42.0634C75.2539 42.0634 75.2539 42.197 75.2539 42.197C75.2539 42.197 75.3875 42.0634 74.9867 42.3306C74.9867 42.3306 74.7195 42.5978 74.5859 42.865C74.3187 43.2658 74.4523 43.8002 74.8531 44.201C74.9867 44.3346 75.1203 44.4682 75.2539 44.6018C77.1243 45.9378 79.3955 46.3386 81.6667 46.6058C82.7356 46.7394 83.8044 46.873 84.8732 47.0066C84.8732 47.1402 84.8732 47.1402 84.8732 47.2738C83.6708 47.2738 82.4684 47.541 81.2659 48.0754C80.9987 48.209 80.7315 48.209 80.5979 48.3426C80.4643 48.4762 80.1971 48.4762 80.0635 48.6098C78.4603 49.6786 78.1931 50.7474 79.7963 51.8162C79.9299 51.8162 79.9299 51.9498 80.0635 52.0834C80.1971 52.217 80.4643 52.217 80.5979 52.4842H80.7315C80.8651 52.6178 81.1323 52.6178 81.2659 52.7514C81.6668 52.885 81.934 53.0186 82.3348 53.1522C83.8044 53.553 85.274 53.9538 86.7436 54.221C88.8812 54.7554 91.0188 55.0226 93.29 55.0226C98.2332 55.2898 103.176 55.1562 108.12 54.7554C108.654 54.4882 109.188 54.7554 109.723 54.6218C109.589 54.7554 109.456 55.0226 109.188 55.0226C109.055 55.0226 108.921 55.0226 108.654 55.0226C108.52 55.1562 108.253 55.1562 108.12 55.2898C107.852 55.557 107.585 55.6906 107.318 55.9578C105.848 57.0266 105.448 58.3626 105.715 60.0994C105.848 60.3667 105.848 60.6339 105.982 60.7675V60.9011C106.116 61.0347 106.116 61.3019 106.383 61.4355C106.65 61.7027 106.65 62.1035 107.051 62.1035C107.318 62.5043 107.719 62.9051 108.12 63.0387C108.387 63.0387 108.52 63.1723 108.654 63.3059C109.589 63.8403 110.524 64.3747 111.727 64.5083C111.994 64.7755 112.395 64.6419 112.662 64.7755C114.666 65.3099 116.67 65.1763 118.674 65.1763C119.342 65.1763 120.01 65.1763 120.678 65.0427C122.549 64.6419 124.553 64.3747 126.423 63.7067C126.557 63.5731 126.69 63.5731 126.824 63.7067C126.957 63.8403 126.824 63.9739 126.69 64.1075C126.289 64.3747 125.889 64.5083 125.621 64.9091C124.285 66.3787 123.484 67.5811 125.221 69.7187C126.022 70.7875 127.225 71.0547 128.293 71.4555C129.229 71.5891 130.164 71.7227 131.233 71.8563C135.641 71.9899 139.917 71.0547 144.058 69.9859C144.86 69.8523 145.661 69.4515 146.597 69.4515C144.325 72.1235 146.062 75.4635 149.135 75.8643C149.937 75.9979 150.738 75.9979 151.54 75.9979C155.281 75.8643 158.621 74.6619 162.094 73.5931C162.228 73.4595 162.495 73.4595 162.362 73.7267C161.961 74.2611 161.426 74.7955 161.026 75.4635C159.556 77.8683 160.491 80.1395 163.163 80.9411C164.766 81.4755 166.37 81.3419 168.106 81.0747C171.58 80.2731 174.386 78.4027 176.924 76.1315C177.058 76.1315 177.191 76.1315 177.058 76.2651C175.187 81.7427 176.122 86.9532 179.462 91.4956C182.936 96.3052 188.013 97.7748 193.624 97.9084C193.49 98.3092 193.357 98.5764 193.09 98.8436C192.288 99.7788 191.486 100.58 190.551 101.516C189.75 102.317 188.948 103.252 188.681 104.455C188.414 105.39 188.547 106.192 189.215 106.592C189.349 106.459 189.482 106.459 189.616 106.325C189.616 106.459 189.616 106.459 189.616 106.592C185.474 109.799 181.199 113.005 177.058 116.078C176.924 116.212 176.79 116.345 176.523 116.479C171.179 120.621 165.702 124.762 160.358 128.904C159.69 129.305 159.155 129.572 158.353 129.572C153.811 129.705 149.135 129.973 144.593 130.106C137.378 130.373 130.164 130.641 123.083 130.908C122.949 130.908 122.949 130.908 122.816 130.908C120.01 130.641 117.205 130.774 114.399 130.641C115.601 130.641 116.804 130.641 118.14 130.641C120.411 130.641 122.816 130.641 125.087 130.641C128.828 130.507 132.435 130.373 136.176 130.24C138.447 130.24 140.718 130.106 142.989 129.973C144.459 129.973 145.929 129.973 147.398 129.839C150.738 129.572 154.078 129.572 157.285 129.438C158.888 129.438 160.09 129.037 161.426 128.102C166.37 124.228 171.179 120.487 176.256 116.746C176.657 116.479 177.058 116.212 177.191 115.677C177.058 115.009 176.523 115.143 176.122 115.276C171.58 116.345 167.038 117.281 162.495 118.349C156.483 119.685 150.605 120.888 144.593 122.224C138.848 123.426 132.969 124.629 127.225 125.831C121.079 127.167 114.8 128.102 108.654 129.305C100.504 130.908 92.3548 132.511 84.2052 133.981C76.9907 135.317 69.9099 136.786 62.6955 138.256C54.9466 139.725 47.1978 141.329 39.449 142.932C38.9146 143.065 32.6353 144.669 30.8985 145.069C29.4289 145.337 27.9593 145.47 26.4897 145.871C25.0201 146.272 18.0729 147.875 16.6033 147.875C16.4697 147.875 16.3361 147.875 16.2025 148.142C16.2025 148.276 16.3361 148.409 16.4697 148.409C16.8705 148.409 17.2713 148.543 17.6721 148.276C20.3441 148.142 23.1497 147.875 25.8217 147.608C28.0929 147.474 36.7769 146.673 38.5138 146.539C40.3842 146.405 42.3882 146.272 44.2586 146.138C50.2706 145.604 56.2826 145.069 62.2947 144.535C67.3715 144.001 72.5819 143.6 77.6587 143.065C83.0028 142.531 88.2132 141.997 93.5572 141.462C99.302 140.794 105.047 140.26 110.925 139.458C113.33 139.057 115.735 139.325 118.006 140.393C119.609 141.195 121.079 141.863 122.682 142.665C126.824 144.802 131.099 146.272 135.909 146.405C136.577 146.405 137.245 146.405 137.913 146.405C137.779 146.673 137.645 146.673 137.512 146.806C133.504 148.81 131.099 152.017 129.897 156.292C129.095 159.231 128.828 162.304 128.293 165.243C127.625 168.984 125.755 170.32 123.083 173.126C120.01 176.332 120.144 176.332 117.472 178.603C114.132 181.542 113.865 182.077 109.99 185.283C107.051 187.421 108.654 186.352 105.18 188.623C102.776 190.36 46.129 233.78 50.0034 231.242C56.9506 226.833 96.0956 203.453 96.8972 202.918C99.302 201.182 97.966 202.25 101.039 200.113C108.654 194.502 103.043 198.643 107.852 194.902C110.524 192.898 127.492 181.542 139.249 174.462C152.742 166.312 166.37 158.162 179.73 149.745C181.333 148.677 182.936 148.543 184.673 148.543C191.353 148.409 197.899 148.009 204.579 147.341C206.183 147.207 207.652 146.94 209.255 146.673C209.923 146.539 209.923 146.673 209.79 147.341C209.255 150.013 214.733 151.215 217.672 153.219C215.401 154.555 213.263 156.158 211.794 158.296C210.859 159.632 210.191 161.235 210.191 162.838C210.057 165.644 212.195 167.381 215.267 166.98C216.069 166.846 216.737 166.579 217.539 166.446C217.806 166.579 217.672 166.713 217.539 166.846C215.134 169.652 212.729 172.324 211.259 175.664C210.992 176.332 210.725 177.134 210.591 177.935C209.923 181.008 212.863 183.814 216.336 182.745C215.935 183.546 215.401 184.214 214.867 184.882C212.328 188.356 209.923 191.963 208.454 196.105C208.187 197.04 208.053 197.975 207.786 198.91C207.919 200.113 207.786 201.315 208.587 202.384C210.191 204.789 211.794 204.522 213.798 203.854C214.199 203.72 214.599 203.453 215 203.186C215.134 203.052 215.401 203.052 215.401 203.319C215.535 203.453 215.401 203.586 215.267 203.72C213.931 205.19 212.996 206.927 211.927 208.53C211.527 209.064 211.393 209.732 211.126 210.4C210.458 212.271 209.523 214.141 209.389 216.145C209.523 216.412 209.255 216.813 209.389 217.08C209.122 218.149 209.389 219.218 209.523 220.42C209.523 220.554 209.656 220.821 209.523 220.955C209.656 221.489 209.923 221.89 210.191 222.291C210.191 222.691 210.591 222.825 210.725 223.226C210.859 223.493 210.992 223.627 211.126 223.76C211.126 223.76 211.259 223.76 211.259 223.894C211.393 224.161 211.66 224.295 211.927 224.428C213.531 225.363 215.267 225.631 216.737 224.562C217.004 224.428 217.405 224.161 217.806 224.027C218.073 224.027 218.073 223.76 218.34 223.627C218.474 223.493 218.474 223.359 218.607 223.226C218.741 222.959 219.142 223.092 219.275 222.959C219.008 223.359 219.142 224.027 218.607 224.428C216.47 228.837 214.599 233.379 213.13 238.055C212.462 240.059 211.927 242.197 211.794 244.468C211.66 245.938 211.393 247.541 211.393 249.011C211.393 249.412 211.393 249.812 211.393 250.08C211.527 250.347 211.393 250.48 211.527 250.748V250.881C211.66 251.015 211.527 251.282 211.66 251.549C211.66 251.683 211.794 251.816 211.794 251.816C212.462 253.82 213.664 253.954 215.267 252.885C215.401 252.752 215.535 252.618 215.802 252.484C216.069 252.351 216.203 252.084 216.336 251.95C217.271 251.148 217.939 250.08 218.474 248.877C218.607 248.877 218.607 248.877 218.741 249.011C218.474 250.08 218.34 251.015 218.073 252.084C217.672 254.355 217.271 256.492 218.073 258.764C218.073 258.897 218.207 259.031 218.34 259.298C218.607 259.832 219.008 260.1 219.543 259.966C219.81 259.966 220.211 259.832 220.211 259.832C220.611 259.565 220.478 259.565 220.478 259.565C220.478 259.565 220.478 259.565 220.611 259.432L220.745 259.298C220.745 259.298 220.879 259.298 220.879 259.164C221.146 259.031 221.413 258.764 222.081 258.096C222.482 257.695 222.215 257.962 222.615 257.561C223.016 257.027 222.615 257.561 223.15 256.893C223.551 256.225 223.417 256.626 223.818 255.824C224.085 255.29 231.032 241.529 231.032 241.529C233.971 234.047 237.846 227.234 240.651 219.619C241.186 218.149 242.923 214.675 243.323 213.072C243.323 212.939 243.991 211.202 243.991 210.935C244.927 208.53 247.465 201.582 247.465 201.716C248 200.647 248.668 197.842 249.202 196.639C249.336 196.372 251.34 189.959 252.141 187.554C252.943 185.283 253.878 183.413 254.546 181.142C255.882 176.599 256.149 174.996 257.485 170.454C258.02 168.316 259.088 165.51 259.89 162.037C260.157 160.701 261.092 158.029 261.76 154.689C261.76 154.689 263.898 147.073 264.566 140.661C265.368 136.653 265.501 135.985 265.902 133.045C266.169 130.908 266.436 128.102 266.57 126.232C267.238 123.961 266.036 120.487 264.566 118.349C263.23 116.212 261.36 114.608 259.088 113.54C258.554 113.272 258.42 113.005 258.821 112.471C259.356 111.669 259.756 110.868 260.157 110.066C261.226 107.928 262.428 105.791 263.364 103.52C263.898 102.05 264.566 100.58 265.234 99.2444C266.169 97.374 267.505 95.9044 268.708 94.1676C268.841 93.9004 268.975 93.6332 269.242 93.2324C269.643 92.5644 270.177 91.6292 270.177 91.4956C270.444 91.2284 270.712 90.9612 270.979 90.694C273.517 87.7548 274.853 84.2812 276.056 80.6739C276.724 78.6699 277.124 76.5323 278.193 74.5283C278.594 74.5283 278.594 74.2611 278.728 73.9939C279.262 73.0587 279.93 72.2571 280.464 71.1883C281.8 69.4515 283.003 67.5811 284.339 65.8443C284.339 65.4435 284.74 65.1763 284.606 65.0427ZM244.659 131.041C244.793 130.908 244.927 130.774 245.06 130.507C245.595 129.973 245.996 129.438 246.53 128.904C245.862 129.705 245.327 130.373 244.659 131.041ZM202.842 77.6011C202.575 76.9331 202.575 76.3987 202.842 75.7307C202.575 76.2651 202.709 76.9331 202.842 77.6011ZM208.053 63.0387C207.919 63.0387 207.919 63.0387 207.786 63.1723C207.919 63.1723 208.053 63.0387 208.053 63.0387H208.187C208.187 63.0387 208.187 63.0387 208.053 63.0387ZM202.442 67.0467C202.175 67.8483 202.308 68.7835 202.709 69.4515C202.308 68.7835 202.175 67.8483 202.442 67.0467ZM197.365 55.6906C197.098 56.225 197.098 56.7594 197.498 57.1602C197.365 57.0266 197.231 56.7594 197.098 56.3586C197.098 56.0914 197.098 55.8242 197.365 55.6906ZM198.968 61.4355C198.968 61.5691 198.968 61.7027 198.968 61.8363C198.968 61.7027 198.968 61.5691 198.968 61.4355ZM202.709 91.2284C202.709 91.4956 202.709 91.7628 202.709 92.03C202.709 91.7628 202.709 91.4956 202.709 91.2284ZM202.442 89.358C202.442 89.7588 202.575 90.1596 202.575 90.4268V90.2932C202.442 89.2244 202.175 88.022 202.041 86.9532C201.907 86.2852 201.907 85.6172 202.041 84.9492C202.041 85.2164 202.041 85.4836 202.041 85.7508C202.041 87.0868 202.308 88.1556 202.442 89.358ZM192.822 51.549C192.689 52.0834 192.689 52.4842 192.956 52.885C192.689 52.4842 192.689 51.9498 192.822 51.549ZM247.331 102.584C247.599 102.584 247.866 102.718 247.866 102.852C245.06 102.584 242.923 101.382 241.453 99.1108C242.789 100.981 244.659 102.184 247.331 102.584ZM235.441 77.0667C235.975 77.4675 236.911 77.7347 237.712 77.7347C237.846 77.7347 238.113 77.7347 238.247 77.6011C237.979 77.7347 237.979 77.8683 237.846 78.1355C237.712 78.1355 237.712 78.1355 237.579 78.1355C235.307 78.1355 233.971 76.9331 233.838 74.7955C233.838 75.1963 233.971 75.0627 234.105 75.4635C234.506 76.1315 234.907 76.5323 235.441 77.0667ZM227.959 55.9578C231.032 58.229 232.502 61.9699 232.903 63.0387C233.17 63.7067 233.303 64.1075 233.437 65.0427C233.437 64.9091 233.303 64.7755 233.303 64.6419C232.235 60.6339 229.83 57.561 226.356 55.2898C224.219 53.9538 221.947 52.885 219.543 51.9498C222.883 53.0186 225.287 53.9538 227.959 55.9578ZM187.345 48.209C187.345 48.3426 187.345 48.4762 187.345 48.6098C187.211 48.4762 187.211 48.3426 187.078 48.209C187.211 48.209 187.345 48.209 187.345 48.209ZM137.111 170.454C136.577 170.988 136.176 171.522 135.641 171.923C136.176 171.522 136.577 170.988 137.111 170.454C137.245 170.32 137.378 170.053 137.645 169.919C137.512 170.053 137.378 170.186 137.378 170.32C137.245 170.32 137.245 170.454 137.111 170.454ZM150.204 134.248C150.204 134.381 150.204 134.381 150.204 134.515C142.321 135.049 134.573 135.584 126.69 136.118C126.156 136.118 125.621 136.118 125.087 135.985C124.82 135.985 124.419 135.985 124.152 135.985C123.617 135.985 123.083 135.985 122.549 135.985C122.949 135.985 123.484 135.985 124.152 135.985C124.419 135.985 124.82 135.985 125.087 135.985C125.354 135.985 125.621 135.985 125.755 135.985C129.496 135.717 133.237 135.45 136.977 135.183C140.05 135.049 142.989 134.782 146.062 134.515C147.265 134.381 148.467 134.515 149.536 134.248C149.669 134.248 149.803 134.248 149.803 134.248C149.937 134.248 150.07 134.248 150.204 134.248ZM149.402 148.944C149.402 149.077 149.269 149.077 149.402 148.944C149.269 149.077 149.269 149.077 149.402 148.944ZM130.03 141.061C129.496 141.061 129.095 141.061 128.561 141.195C128.961 141.061 129.496 141.061 130.03 141.061C130.565 141.061 131.099 140.928 131.5 140.928C135.641 140.26 139.783 139.592 143.925 138.924C144.459 138.79 145.127 138.79 145.661 138.523C145.795 138.523 145.795 138.523 145.929 138.523C145.929 138.523 146.062 138.657 146.196 138.657C146.062 138.79 145.929 138.79 145.795 138.79C141.253 139.458 136.844 140.26 132.301 140.928C131.5 140.928 130.698 140.928 130.03 141.061ZM143.791 141.863C142.321 143.065 140.985 144.134 139.783 145.203C139.649 145.337 139.516 145.337 139.382 145.47C140.585 144.268 142.054 143.333 143.257 142.13C143.39 141.997 143.524 141.997 143.524 141.863C143.791 141.863 143.791 141.863 143.791 141.863ZM133.237 165.778C133.237 165.911 133.237 165.911 133.237 165.778C133.103 165.911 133.103 165.911 133.103 165.911C133.237 165.911 133.237 165.911 133.237 165.778ZM133.905 165.11C135.641 163.373 137.245 161.636 138.981 159.899C142.188 156.425 145.394 152.952 148.734 149.612C148.868 149.478 148.868 149.478 149.001 149.345C147.933 150.547 146.864 151.616 145.795 152.818C142.321 156.559 138.981 160.166 135.508 163.907C134.973 164.174 134.439 164.709 133.905 165.11ZM155.281 149.345C155.147 149.345 155.147 149.345 155.281 149.345C155.147 149.345 155.147 149.345 155.281 149.345C155.281 149.345 155.147 149.345 155.281 149.345ZM132.702 157.494C133.504 156.826 134.439 156.292 135.241 155.757C137.378 154.021 139.382 152.417 141.52 150.681C142.321 150.013 143.257 149.345 143.925 148.677C144.058 148.543 144.058 148.543 144.192 148.409H144.325C141.253 150.948 138.313 153.353 135.374 155.757C134.439 156.292 133.504 156.826 132.702 157.494C132.569 157.628 132.569 157.628 132.435 157.628C132.301 157.628 132.301 157.761 132.301 157.761L132.435 157.628C132.569 157.628 132.569 157.494 132.702 157.494ZM260.558 123.025C259.356 121.422 257.619 120.487 255.481 120.353C253.344 120.22 251.607 119.285 249.87 118.082C248.801 117.281 248 116.345 247.331 115.276C247.465 115.41 247.599 115.677 247.732 115.811C249.068 117.681 250.939 118.884 253.076 119.685C253.611 119.819 254.012 119.953 254.546 120.086C257.218 120.086 259.222 121.155 260.558 123.025Z" fill="white"/>
<path d="M208.053 63.0387C207.919 63.0387 207.919 63.0387 207.786 63.1723C207.919 63.1723 208.053 63.0387 208.053 63.0387ZM208.053 63.0387H208.187C208.187 63.0387 208.187 63.0387 208.053 63.0387ZM137.111 170.454C136.577 170.988 136.176 171.522 135.641 171.923C136.176 171.522 136.577 170.988 137.111 170.454ZM137.111 170.454C137.245 170.32 137.378 170.053 137.645 169.919C137.512 170.053 137.378 170.186 137.378 170.32C137.245 170.32 137.245 170.454 137.111 170.454ZM130.03 141.061C129.496 141.061 129.095 141.061 128.561 141.195C128.961 141.061 129.496 141.061 130.03 141.061ZM130.03 141.061C130.565 141.061 131.099 140.928 131.5 140.928C135.641 140.26 139.783 139.592 143.925 138.924C144.459 138.79 145.127 138.79 145.661 138.523C145.795 138.523 145.795 138.523 145.929 138.523C145.929 138.523 146.062 138.657 146.196 138.657C146.062 138.79 145.929 138.79 145.795 138.79C141.253 139.458 136.844 140.26 132.301 140.928C131.5 140.928 130.698 140.928 130.03 141.061ZM155.281 149.345C155.147 149.345 155.147 149.345 155.281 149.345C155.147 149.345 155.147 149.345 155.281 149.345ZM155.281 149.345C155.147 149.345 155.281 149.345 155.281 149.345ZM132.702 157.494C133.504 156.826 134.439 156.292 135.241 155.757C137.378 154.021 139.382 152.417 141.52 150.681C142.321 150.013 143.257 149.345 143.925 148.677C144.058 148.543 144.058 148.543 144.192 148.409H144.325C141.253 150.948 138.313 153.353 135.374 155.757C134.439 156.292 133.504 156.826 132.702 157.494ZM132.702 157.494C132.569 157.628 132.569 157.628 132.435 157.628C132.301 157.628 132.301 157.761 132.301 157.761L132.435 157.628C132.569 157.628 132.569 157.494 132.702 157.494ZM284.606 65.0427C280.865 65.0427 277.258 65.9779 273.651 65.8443C273.651 65.8443 273.651 65.9779 273.517 65.9779C273.517 65.9779 273.517 65.8443 273.384 65.8443C272.983 65.5771 272.448 65.3099 272.048 65.1763C271.914 65.0427 271.647 65.0427 271.513 64.9091C271.38 64.7755 268.841 64.1075 268.44 63.8403C266.971 63.7067 265.501 63.5731 264.032 63.8403C263.764 63.8403 263.497 63.8403 263.096 63.9739C262.428 64.2411 259.756 65.0427 259.356 65.1763C259.222 65.3099 256.684 66.3787 256.55 66.5123C254.145 67.9819 251.874 69.3179 249.603 71.0547C249.068 71.4555 245.328 73.9939 245.194 74.1275C244.659 74.5283 242.388 75.7307 242.255 75.8643C241.987 75.9979 241.854 76.1315 241.587 76.2651C241.453 76.3987 241.186 76.3987 241.052 76.5323C240.651 76.6659 240.518 76.7995 239.85 76.9331C239.182 77.2003 239.85 76.9331 239.182 77.2003C238.781 77.3339 238.647 77.3339 238.514 77.4675C238.514 77.4675 238.514 77.4675 238.38 77.4675C237.445 77.6011 237.178 77.6011 236.643 77.4675C235.842 77.2003 235.441 76.9331 235.307 76.7995C235.04 76.5323 234.372 75.8643 234.372 74.7955C234.372 74.6619 234.372 74.6619 234.372 74.5283C234.506 74.1275 234.506 73.5931 234.506 72.6579C234.639 68.9171 235.307 68.2491 235.174 65.5771C235.04 63.0387 233.571 60.5002 232.368 58.229C231.166 55.9578 228.627 53.6866 225.688 52.3506C222.883 51.0146 221.012 49.9458 214.199 47.9418L208.32 46.4722C208.32 46.4722 200.438 44.869 200.037 44.7354C198.701 44.4682 197.365 44.3346 196.029 44.0674C194.826 43.9338 193.49 43.8002 192.288 43.6666C190.418 43.3994 188.547 43.1322 186.543 43.1322L184.272 42.865C182.802 42.7314 175.855 42.197 173.584 42.0634C168.774 41.6626 163.965 41.6626 159.289 41.2618C156.884 41.1282 154.479 41.2618 151.941 40.9946C149.402 40.7274 138.18 40.3266 136.577 40.4602C136.71 40.4602 135.374 40.4602 133.637 40.4602C131.099 40.4602 125.488 40.3266 125.221 40.3266C123.617 40.193 122.148 40.3266 120.545 40.3266C112.395 40.3266 105.314 40.193 97.1644 40.3266C96.8972 40.3266 94.7596 40.3266 93.4236 40.3266C90.0836 40.3266 88.614 40.4602 85.274 40.4602C84.606 40.4602 83.938 40.4602 83.27 40.4602C82.602 40.4602 82.0676 40.4602 81.3995 40.4602C80.7315 40.4602 80.1971 40.4602 79.5291 40.4602C78.5939 40.5938 78.9947 40.5938 78.3267 40.7274C77.5251 40.9946 78.1931 40.7274 77.5251 40.9946C76.8571 41.2618 77.2579 41.1282 76.7235 41.2618C75.9219 41.6626 75.6547 41.6626 75.3875 41.9298H75.2539L75.3875 42.0634C75.2539 42.0634 75.2539 42.197 75.2539 42.197C75.2539 42.197 75.3875 42.0634 74.9867 42.3306C74.9867 42.3306 74.7195 42.5978 74.5859 42.865C74.3187 43.2658 74.4523 43.8002 74.8531 44.201C74.9867 44.3346 75.1203 44.4682 75.2539 44.6018C77.1243 45.9378 79.3955 46.3386 81.6667 46.6058C82.7356 46.7394 83.8044 46.873 84.8732 47.0066C84.8732 47.1402 84.8732 47.1402 84.8732 47.2738C83.6708 47.2738 82.4684 47.541 81.2659 48.0754C80.9987 48.209 80.7315 48.209 80.5979 48.3426C80.4643 48.4762 80.1971 48.4762 80.0635 48.6098C78.4603 49.6786 78.1931 50.7474 79.7963 51.8162C79.9299 51.8162 79.9299 51.9498 80.0635 52.0834C80.1971 52.217 80.4643 52.217 80.5979 52.4842H80.7315C80.8651 52.6178 81.1323 52.6178 81.2659 52.7514C81.6668 52.885 81.934 53.0186 82.3348 53.1522C83.8044 53.553 85.274 53.9538 86.7436 54.221C88.8812 54.7554 91.0188 55.0226 93.29 55.0226C98.2332 55.2898 103.176 55.1562 108.12 54.7554C108.654 54.4882 109.188 54.7554 109.723 54.6218C109.589 54.7554 109.456 55.0226 109.188 55.0226C109.055 55.0226 108.921 55.0226 108.654 55.0226C108.52 55.1562 108.253 55.1562 108.12 55.2898C107.852 55.557 107.585 55.6906 107.318 55.9578C105.848 57.0266 105.448 58.3626 105.715 60.0994C105.848 60.3667 105.848 60.6339 105.982 60.7675V60.9011C106.116 61.0347 106.116 61.3019 106.383 61.4355C106.65 61.7027 106.65 62.1035 107.051 62.1035C107.318 62.5043 107.719 62.9051 108.12 63.0387C108.387 63.0387 108.52 63.1723 108.654 63.3059C109.589 63.8403 110.524 64.3747 111.727 64.5083C111.994 64.7755 112.395 64.6419 112.662 64.7755C114.666 65.3099 116.67 65.1763 118.674 65.1763C119.342 65.1763 120.01 65.1763 120.678 65.0427C122.549 64.6419 124.553 64.3747 126.423 63.7067C126.557 63.5731 126.69 63.5731 126.824 63.7067C126.957 63.8403 126.824 63.9739 126.69 64.1075C126.289 64.3747 125.889 64.5083 125.621 64.9091C124.285 66.3787 123.484 67.5811 125.221 69.7187C126.022 70.7875 127.225 71.0547 128.293 71.4555C129.229 71.5891 130.164 71.7227 131.233 71.8563C135.641 71.9899 139.917 71.0547 144.058 69.9859C144.86 69.8523 145.661 69.4515 146.597 69.4515C144.325 72.1235 146.062 75.4635 149.135 75.8643C149.937 75.9979 150.738 75.9979 151.54 75.9979C155.281 75.8643 158.621 74.6619 162.094 73.5931C162.228 73.4595 162.495 73.4595 162.362 73.7267C161.961 74.2611 161.426 74.7955 161.026 75.4635C159.556 77.8683 160.491 80.1395 163.163 80.9411C164.766 81.4755 166.37 81.3419 168.106 81.0747C171.58 80.2731 174.386 78.4027 176.924 76.1315C177.058 76.1315 177.191 76.1315 177.058 76.2651C175.187 81.7427 176.122 86.9532 179.462 91.4956C182.936 96.3052 188.013 97.7748 193.624 97.9084C193.49 98.3092 193.357 98.5764 193.09 98.8436C192.288 99.7788 191.486 100.58 190.551 101.516C189.75 102.317 188.948 103.252 188.681 104.455C188.414 105.39 188.547 106.192 189.215 106.592C189.349 106.459 189.482 106.459 189.616 106.325C189.616 106.459 189.616 106.459 189.616 106.592C185.474 109.799 181.199 113.005 177.058 116.078C176.924 116.212 176.79 116.345 176.523 116.479C171.179 120.621 165.702 124.762 160.358 128.904C159.69 129.305 159.155 129.572 158.353 129.572C153.811 129.705 149.135 129.973 144.593 130.106C137.378 130.373 130.164 130.641 123.083 130.908C122.949 130.908 122.949 130.908 122.816 130.908C120.01 130.641 117.205 130.774 114.399 130.641C115.601 130.641 116.804 130.641 118.14 130.641C120.411 130.641 122.816 130.641 125.087 130.641C128.828 130.507 132.435 130.373 136.176 130.24C138.447 130.24 140.718 130.106 142.989 129.973C144.459 129.973 145.929 129.973 147.398 129.839C150.738 129.572 154.078 129.572 157.285 129.438C158.888 129.438 160.09 129.037 161.426 128.102C166.37 124.228 171.179 120.487 176.256 116.746C176.657 116.479 177.058 116.212 177.191 115.677C177.058 115.009 176.523 115.143 176.122 115.276C171.58 116.345 167.038 117.281 162.495 118.349C156.483 119.685 150.605 120.888 144.593 122.224C138.848 123.426 132.969 124.629 127.225 125.831C121.079 127.167 114.8 128.102 108.654 129.305C100.504 130.908 92.3548 132.511 84.2052 133.981C76.9907 135.317 69.9099 136.786 62.6955 138.256C54.9466 139.725 47.1978 141.329 39.449 142.932C38.9146 143.065 32.6353 144.669 30.8985 145.069C29.4289 145.337 27.9593 145.47 26.4897 145.871C25.0201 146.272 18.0729 147.875 16.6033 147.875C16.4697 147.875 16.3361 147.875 16.2025 148.142C16.2025 148.276 16.3361 148.409 16.4697 148.409C16.8705 148.409 17.2713 148.543 17.6721 148.276C20.3441 148.142 23.1497 147.875 25.8217 147.608C28.0929 147.474 36.7769 146.673 38.5138 146.539C40.3842 146.405 42.3882 146.272 44.2586 146.138C50.2706 145.604 56.2826 145.069 62.2947 144.535C67.3715 144.001 72.5819 143.6 77.6587 143.065C83.0028 142.531 88.2132 141.997 93.5572 141.462C99.302 140.794 105.047 140.26 110.925 139.458C113.33 139.057 115.735 139.325 118.006 140.393C119.609 141.195 121.079 141.863 122.682 142.665C126.824 144.802 131.099 146.272 135.909 146.405C136.577 146.405 137.245 146.405 137.913 146.405C137.779 146.673 137.645 146.673 137.512 146.806C133.504 148.81 131.099 152.017 129.897 156.292C129.095 159.231 128.828 162.304 128.293 165.243C127.625 168.984 125.755 170.32 123.083 173.126C120.01 176.332 120.144 176.332 117.472 178.603C114.132 181.542 113.865 182.077 109.99 185.283C107.051 187.421 108.654 186.352 105.18 188.623C102.776 190.36 46.129 233.78 50.0034 231.242C56.9506 226.833 96.0956 203.453 96.8972 202.918C99.302 201.182 97.966 202.25 101.039 200.113C108.654 194.502 103.043 198.643 107.852 194.902C110.524 192.898 127.492 181.542 139.249 174.462C152.742 166.312 166.37 158.162 179.73 149.745C181.333 148.677 182.936 148.543 184.673 148.543C191.353 148.409 197.899 148.009 204.579 147.341C206.183 147.207 207.652 146.94 209.255 146.673C209.923 146.539 209.923 146.673 209.79 147.341C209.255 150.013 214.733 151.215 217.672 153.219C215.401 154.555 213.263 156.158 211.794 158.296C210.859 159.632 210.191 161.235 210.191 162.838C210.057 165.644 212.195 167.381 215.267 166.98C216.069 166.846 216.737 166.579 217.539 166.446C217.806 166.579 217.672 166.713 217.539 166.846C215.134 169.652 212.729 172.324 211.259 175.664C210.992 176.332 210.725 177.134 210.591 177.935C209.923 181.008 212.863 183.814 216.336 182.745C215.935 183.546 215.401 184.214 214.867 184.882C212.328 188.356 209.923 191.963 208.454 196.105C208.187 197.04 208.053 197.975 207.786 198.91C207.919 200.113 207.786 201.315 208.587 202.384C210.191 204.789 211.794 204.522 213.798 203.854C214.199 203.72 214.599 203.453 215 203.186C215.134 203.052 215.401 203.052 215.401 203.319C215.535 203.453 215.401 203.586 215.267 203.72C213.931 205.19 212.996 206.927 211.927 208.53C211.527 209.064 211.393 209.732 211.126 210.4C210.458 212.271 209.523 214.141 209.389 216.145C209.523 216.412 209.255 216.813 209.389 217.08C209.122 218.149 209.389 219.218 209.523 220.42C209.523 220.554 209.656 220.821 209.523 220.955C209.656 221.489 209.923 221.89 210.191 222.291C210.191 222.691 210.591 222.825 210.725 223.226C210.859 223.493 210.992 223.627 211.126 223.76C211.126 223.76 211.259 223.76 211.259 223.894C211.393 224.161 211.66 224.295 211.927 224.428C213.531 225.363 215.267 225.631 216.737 224.562C217.004 224.428 217.405 224.161 217.806 224.027C218.073 224.027 218.073 223.76 218.34 223.627C218.474 223.493 218.474 223.359 218.607 223.226C218.741 222.959 219.142 223.092 219.275 222.959C219.008 223.359 219.142 224.027 218.607 224.428C216.47 228.837 214.599 233.379 213.13 238.055C212.462 240.059 211.927 242.197 211.794 244.468C211.66 245.938 211.393 247.541 211.393 249.011C211.393 249.412 211.393 249.812 211.393 250.08C211.527 250.347 211.393 250.48 211.527 250.748V250.881C211.66 251.015 211.527 251.282 211.66 251.549C211.66 251.683 211.794 251.816 211.794 251.816C212.462 253.82 213.664 253.954 215.267 252.885C215.401 252.752 215.535 252.618 215.802 252.484C216.069 252.351 216.203 252.084 216.336 251.95C217.271 251.148 217.939 250.08 218.474 248.877C218.607 248.877 218.607 248.877 218.741 249.011C218.474 250.08 218.34 251.015 218.073 252.084C217.672 254.355 217.271 256.492 218.073 258.764C218.073 258.897 218.207 259.031 218.34 259.298C218.607 259.832 219.008 260.1 219.543 259.966C219.81 259.966 220.211 259.832 220.211 259.832C220.611 259.565 220.478 259.565 220.478 259.565C220.478 259.565 220.478 259.565 220.611 259.432L220.745 259.298C220.745 259.298 220.879 259.298 220.879 259.164C221.146 259.031 221.413 258.764 222.081 258.096C222.482 257.695 222.215 257.962 222.615 257.561C223.016 257.027 222.615 257.561 223.15 256.893C223.551 256.225 223.417 256.626 223.818 255.824C224.085 255.29 231.032 241.529 231.032 241.529C233.971 234.047 237.846 227.234 240.651 219.619C241.186 218.149 242.923 214.675 243.323 213.072C243.323 212.939 243.991 211.202 243.991 210.935C244.927 208.53 247.465 201.582 247.465 201.716C248 200.647 248.668 197.842 249.202 196.639C249.336 196.372 251.34 189.959 252.141 187.554C252.943 185.283 253.878 183.413 254.546 181.142C255.882 176.599 256.149 174.996 257.485 170.454C258.02 168.316 259.088 165.51 259.89 162.037C260.157 160.701 261.092 158.029 261.76 154.689C261.76 154.689 263.898 147.073 264.566 140.661C265.368 136.653 265.501 135.985 265.902 133.045C266.169 130.908 266.436 128.102 266.57 126.232C267.238 123.961 266.036 120.487 264.566 118.349C263.23 116.212 261.36 114.608 259.088 113.54C258.554 113.272 258.42 113.005 258.821 112.471C259.356 111.669 259.756 110.868 260.157 110.066C261.226 107.928 262.428 105.791 263.364 103.52C263.898 102.05 264.566 100.58 265.234 99.2444C266.169 97.374 267.505 95.9044 268.708 94.1676C268.841 93.9004 268.975 93.6332 269.242 93.2324C269.643 92.5644 270.177 91.6292 270.177 91.4956C270.444 91.2284 270.712 90.9612 270.979 90.694C273.517 87.7548 274.853 84.2812 276.056 80.6739C276.724 78.6699 277.124 76.5323 278.193 74.5283C278.594 74.5283 278.594 74.2611 278.728 73.9939C279.262 73.0587 279.93 72.2571 280.464 71.1883C281.8 69.4515 283.003 67.5811 284.339 65.8443C284.339 65.4435 284.74 65.1763 284.606 65.0427ZM244.659 131.041C244.793 130.908 244.927 130.774 245.06 130.507C245.595 129.973 245.996 129.438 246.53 128.904C245.862 129.705 245.327 130.373 244.659 131.041ZM202.842 77.6011C202.575 76.9331 202.575 76.3987 202.842 75.7307C202.575 76.2651 202.709 76.9331 202.842 77.6011ZM202.442 67.0467C202.175 67.8483 202.308 68.7835 202.709 69.4515C202.308 68.7835 202.175 67.8483 202.442 67.0467ZM197.365 55.6906C197.098 56.225 197.098 56.7594 197.498 57.1602C197.365 57.0266 197.231 56.7594 197.098 56.3586C197.098 56.0914 197.098 55.8242 197.365 55.6906ZM198.968 61.4355C198.968 61.5691 198.968 61.7027 198.968 61.8363C198.968 61.7027 198.968 61.5691 198.968 61.4355ZM202.709 91.2284C202.709 91.4956 202.709 91.7628 202.709 92.03C202.709 91.7628 202.709 91.4956 202.709 91.2284ZM202.442 89.358C202.442 89.7588 202.575 90.1596 202.575 90.4268V90.2932C202.442 89.2244 202.175 88.022 202.041 86.9532C201.907 86.2852 201.907 85.6172 202.041 84.9492C202.041 85.2164 202.041 85.4836 202.041 85.7508C202.041 87.0868 202.308 88.1556 202.442 89.358ZM192.822 51.549C192.689 52.0834 192.689 52.4842 192.956 52.885C192.689 52.4842 192.689 51.9498 192.822 51.549ZM247.331 102.584C247.599 102.584 247.866 102.718 247.866 102.852C245.06 102.584 242.923 101.382 241.453 99.1108C242.789 100.981 244.659 102.184 247.331 102.584ZM235.441 77.0667C235.975 77.4675 236.911 77.7347 237.712 77.7347C237.846 77.7347 238.113 77.7347 238.247 77.6011C237.979 77.7347 237.979 77.8683 237.846 78.1355C237.712 78.1355 237.712 78.1355 237.579 78.1355C235.307 78.1355 233.971 76.9331 233.838 74.7955C233.838 75.1963 233.971 75.0627 234.105 75.4635C234.506 76.1315 234.907 76.5323 235.441 77.0667ZM227.959 55.9578C231.032 58.229 232.502 61.9699 232.903 63.0387C233.17 63.7067 233.303 64.1075 233.437 65.0427C233.437 64.9091 233.303 64.7755 233.303 64.6419C232.235 60.6339 229.83 57.561 226.356 55.2898C224.219 53.9538 221.947 52.885 219.543 51.9498C222.883 53.0186 225.287 53.9538 227.959 55.9578ZM187.345 48.209C187.345 48.3426 187.345 48.4762 187.345 48.6098C187.211 48.4762 187.211 48.3426 187.078 48.209C187.211 48.209 187.345 48.209 187.345 48.209ZM150.204 134.248C150.204 134.381 150.204 134.381 150.204 134.515C142.321 135.049 134.573 135.584 126.69 136.118C126.156 136.118 125.621 136.118 125.087 135.985C124.82 135.985 124.419 135.985 124.152 135.985C123.617 135.985 123.083 135.985 122.549 135.985C122.949 135.985 123.484 135.985 124.152 135.985C124.419 135.985 124.82 135.985 125.087 135.985C125.354 135.985 125.621 135.985 125.755 135.985C129.496 135.717 133.237 135.45 136.977 135.183C140.05 135.049 142.989 134.782 146.062 134.515C147.265 134.381 148.467 134.515 149.536 134.248C149.669 134.248 149.803 134.248 149.803 134.248C149.937 134.248 150.07 134.248 150.204 134.248ZM149.402 148.944C149.402 149.077 149.269 149.077 149.402 148.944C149.269 149.077 149.269 149.077 149.402 148.944ZM143.791 141.863C142.321 143.065 140.985 144.134 139.783 145.203C139.649 145.337 139.516 145.337 139.382 145.47C140.585 144.268 142.054 143.333 143.257 142.13C143.39 141.997 143.524 141.997 143.524 141.863C143.791 141.863 143.791 141.863 143.791 141.863ZM133.237 165.778C133.237 165.911 133.237 165.911 133.237 165.778C133.103 165.911 133.103 165.911 133.103 165.911C133.237 165.911 133.237 165.911 133.237 165.778ZM133.905 165.11C135.641 163.373 137.245 161.636 138.981 159.899C142.188 156.425 145.394 152.952 148.734 149.612C148.868 149.478 148.868 149.478 149.001 149.345C147.933 150.547 146.864 151.616 145.795 152.818C142.321 156.559 138.981 160.166 135.508 163.907C134.973 164.174 134.439 164.709 133.905 165.11ZM260.558 123.025C259.356 121.422 257.619 120.487 255.481 120.353C253.344 120.22 251.607 119.285 249.87 118.082C248.801 117.281 248 116.345 247.331 115.276C247.465 115.41 247.599 115.677 247.732 115.811C249.068 117.681 250.939 118.884 253.076 119.685C253.611 119.819 254.012 119.953 254.546 120.086C257.218 120.086 259.222 121.155 260.558 123.025Z" stroke="white" stroke-width="3" stroke-miterlimit="10"/>
<path d="M215 47.8082C221.814 49.6786 223.684 50.881 226.49 52.2171C229.429 53.5531 231.834 55.6907 233.17 58.0955C234.372 60.3667 235.975 62.9051 235.975 65.4435C236.109 68.2491 235.441 68.7835 235.307 72.5243C235.174 76.2652 234.506 74.5284 234.506 74.5284C234.506 74.5284 234.239 72.7915 234.239 68.6499C234.239 64.7755 233.971 64.1075 233.571 63.0387C233.036 61.9699 231.7 58.2291 228.627 55.9579C225.555 53.6867 222.883 52.7515 218.607 51.5491C214.332 50.3466 210.725 50.213 210.458 49.8122C210.057 49.4114 203.243 47.0066 209.389 46.4722" fill="black"/>
<path d="M285.14 64.9091C281.4 64.9091 277.792 65.8443 274.185 65.7107C273.918 65.9779 274.185 66.3787 274.185 66.6459C274.185 67.7147 273.651 68.2491 272.582 67.9819C272.048 67.8483 271.647 67.7147 271.246 67.5811C270.979 67.5811 270.712 67.4475 270.578 67.1803C269.643 66.6459 268.708 66.1115 267.906 65.5771C266.837 64.9091 265.902 64.1075 264.7 63.7067C264.432 63.7067 264.165 63.7067 263.764 63.8403C263.096 64.1075 260.424 64.9091 260.024 65.0427C259.89 65.1763 257.352 66.2451 257.218 66.3787C254.813 67.8483 252.542 69.1843 250.271 70.9211C249.736 71.3219 245.995 73.8603 245.862 73.9939C245.327 74.3947 243.056 75.5971 242.923 75.7307C242.655 75.8644 242.522 75.998 242.255 76.1316C242.121 76.2652 241.854 76.2652 241.72 76.3988C241.319 76.5324 241.186 76.666 240.518 76.7996C239.85 77.0668 240.518 76.7996 239.85 77.0668C239.182 77.2004 239.315 77.334 238.781 77.4676C238.38 77.6012 238.38 78.002 238.38 78.4028C238.38 79.2044 238.514 79.8724 238.647 80.5404C239.048 81.8764 239.716 83.2124 240.251 84.5484C240.651 85.4836 240.919 86.2852 240.651 87.354C240.117 89.2244 240.117 91.2284 240.117 93.2324C240.117 97.6412 242.522 101.783 247.866 102.584C248.534 102.718 248.534 102.985 248.267 103.386C247.599 104.588 247.198 105.791 246.797 107.127C245.995 110.2 246.129 113.273 248.133 115.811C249.469 117.681 251.339 118.884 253.477 119.685C254.011 119.819 254.412 119.953 254.947 120.086C258.287 120.22 260.692 121.823 261.894 125.029C262.963 127.568 262.963 130.373 262.829 133.045C262.829 133.58 262.562 133.981 262.295 134.515C261.36 136.118 260.424 137.721 259.355 139.325C258.687 140.393 258.153 141.462 257.218 142.531C256.951 141.462 256.817 140.527 256.55 139.592C256.416 139.191 256.55 138.523 255.882 138.523C255.347 138.389 255.214 138.924 254.947 139.325C254.679 139.725 254.412 140.126 254.279 140.527C254.011 141.061 253.477 141.195 252.943 141.061C252.408 140.928 252.275 140.527 252.141 140.126C251.874 139.325 252.007 138.523 252.007 137.721C252.007 136.786 251.607 136.519 250.805 137.053C250.538 137.321 250.137 137.721 249.736 137.454C249.335 137.187 249.335 136.653 249.335 136.252C249.335 135.985 249.335 135.851 249.335 135.584C249.469 134.916 249.469 134.114 249.603 133.446C249.603 133.179 249.603 132.912 249.335 132.778C249.068 132.645 248.801 132.778 248.667 132.912C248.4 133.179 248.133 133.446 247.866 133.713C247.198 134.381 246.396 134.782 245.461 135.049C244.392 135.317 243.858 134.782 243.858 133.713C243.858 132.511 244.526 131.576 245.194 130.774C245.862 130.106 246.53 129.438 247.064 128.637C248.4 126.9 249.736 125.163 250.805 123.293C251.072 122.892 251.339 122.491 250.939 122.224C250.538 121.957 250.137 122.224 249.87 122.491L249.736 122.625C248.133 123.961 246.396 125.297 244.659 126.633C237.846 131.843 230.364 135.851 222.215 138.657C216.47 140.661 210.591 142.13 204.713 143.199C200.838 144.001 196.83 144.669 192.956 145.203C187.746 146.005 182.535 146.806 177.325 147.341C174.519 147.608 171.58 147.875 168.774 148.142C166.77 148.276 164.766 148.409 162.629 148.276C161.693 148.276 161.025 148.543 160.224 149.211C156.884 152.284 153.544 155.357 150.204 158.43C147.532 160.968 144.726 163.373 142.054 165.911C141.119 166.713 140.317 167.648 139.382 168.45C138.581 169.118 137.779 169.919 136.977 170.587C136.443 171.122 136.042 171.656 135.508 172.057C135.909 171.522 136.443 170.988 136.977 170.587C138.848 168.583 140.718 166.178 142.589 163.907C146.597 159.231 150.605 154.422 154.746 149.745C154.88 149.612 155.013 149.345 155.147 149.211C155.281 148.677 155.013 148.409 154.479 148.409C153.945 148.543 153.677 148.81 153.277 149.077C149.937 151.749 146.597 154.422 143.257 157.227C140.05 159.899 136.71 162.438 133.637 165.243C133.37 165.51 133.237 165.644 132.969 165.911L132.836 166.045L132.969 165.911C133.237 165.644 133.37 165.51 133.637 165.243C135.374 163.506 136.977 161.77 138.714 160.033C141.921 156.559 145.127 153.086 148.467 149.745C148.868 149.345 149.536 148.944 149.001 148.276C148.601 147.741 147.933 148.142 147.398 148.409C145.661 149.345 143.925 150.413 142.321 151.349C138.981 153.353 135.374 155.223 132.168 157.494C132.034 157.494 132.034 157.628 131.901 157.628C131.767 157.628 131.767 157.762 131.767 157.762C131.767 157.762 131.767 157.762 131.633 157.895C131.633 157.895 131.633 157.895 131.767 157.762L131.901 157.628C132.034 157.628 132.034 157.494 132.168 157.494C132.969 156.826 133.905 156.292 134.706 155.758C136.844 154.021 138.848 152.417 140.985 150.681C141.787 150.013 142.722 149.345 143.39 148.677C143.657 148.409 143.925 148.276 143.791 147.875C143.657 147.474 143.257 147.474 142.989 147.341C142.856 147.341 142.589 147.341 142.455 147.207C141.386 146.94 140.184 146.806 139.115 146.405C138.313 146.138 138.313 146.138 138.981 145.47C140.184 144.268 141.653 143.333 142.856 142.13C143.123 141.863 143.524 141.596 143.257 141.195C143.123 140.794 142.589 140.794 142.188 140.794C141.253 140.928 140.451 140.928 139.516 140.928C136.176 140.928 132.702 140.794 129.362 141.061C128.828 141.061 128.427 141.061 127.893 141.195C127.759 141.195 127.492 141.195 127.358 141.195C127.492 141.195 127.759 141.195 127.893 141.195C128.427 141.195 128.828 141.061 129.362 141.061C129.897 141.061 130.431 140.928 130.832 140.928C134.973 140.26 139.115 139.592 143.257 138.924C143.925 138.79 144.726 138.924 145.261 138.389C145.394 138.256 145.394 137.989 145.261 137.855C145.127 137.721 144.86 137.721 144.593 137.588C143.524 137.321 142.321 137.321 141.119 137.321C138.447 137.187 135.641 136.92 132.969 136.786C130.03 136.653 126.957 136.252 124.152 136.118C123.884 136.118 123.484 136.118 123.216 136.118C122.682 136.118 122.148 136.118 121.613 136.118C122.014 136.118 122.548 136.118 123.216 136.118C123.484 136.118 123.884 136.118 124.152 136.118C124.419 136.118 124.686 136.118 124.82 136.118C128.561 135.851 132.301 135.584 136.042 135.317C139.115 135.183 142.054 134.916 145.127 134.649C146.329 134.515 147.532 134.649 148.601 134.381C148.868 134.248 149.402 134.381 149.402 133.847C149.402 133.446 149.001 133.313 148.601 133.313C146.062 133.045 143.39 132.778 140.852 132.645C138.18 132.511 135.508 132.244 132.836 132.11C129.095 131.843 125.354 131.576 121.613 131.309C118.808 131.041 116.002 131.175 113.196 131.041C114.399 131.041 115.601 131.041 116.937 131.041C119.208 131.041 121.613 131.041 123.884 131.041C127.625 130.908 131.233 130.774 134.973 130.641C137.245 130.641 139.516 130.507 141.787 130.373C143.257 130.373 144.726 130.373 146.196 130.24C149.536 129.973 152.876 129.973 156.082 129.839C157.685 129.839 158.888 129.438 160.224 128.503C165.167 124.629 169.977 120.888 175.054 117.147C175.454 116.88 175.855 116.613 175.989 116.078C175.855 115.41 175.321 115.544 174.92 115.677C170.377 116.746 165.835 117.681 161.293 118.75C155.281 120.086 149.402 121.289 143.39 122.625C137.645 123.827 131.767 125.029 126.022 126.232C119.876 127.568 113.597 128.503 107.452 129.705C99.302 131.309 91.1523 132.912 83.0027 134.381C75.7883 135.717 68.7074 137.187 61.493 138.657C53.7442 140.126 45.9953 141.729 38.2465 143.333C37.7121 143.466 31.4329 145.069 29.6961 145.47C28.2265 145.737 26.7569 145.871 25.2872 146.272C23.8176 146.673 16.8704 148.276 15.4008 148.276C15.2672 148.276 15.1336 148.276 15 148.543C15 148.677 15.1336 148.81 15.2672 148.81C15.668 148.81 16.0688 148.944 16.4696 148.677C19.1416 148.543 21.9472 148.276 24.6192 148.009C26.8905 147.875 35.5745 147.073 37.3113 146.94C39.1817 146.806 41.1857 146.673 43.0561 146.539C49.0682 146.005 55.0802 145.47 61.0922 144.936C66.169 144.401 71.3795 144.001 76.4563 143.466C81.8003 142.932 87.0107 142.397 92.3548 141.863C98.0996 141.195 103.844 140.661 109.723 139.859C112.128 139.458 114.532 139.725 116.804 140.794C118.407 141.596 119.876 142.264 121.48 143.065C125.621 145.203 129.897 146.673 134.706 146.806C135.374 146.806 136.042 146.806 136.71 146.806C136.577 147.073 136.443 147.073 136.309 147.207C132.301 149.211 129.897 152.417 128.694 156.693C127.893 159.632 127.625 162.705 127.091 165.644C126.423 169.385 124.552 170.721 121.88 173.526C118.808 176.733 118.941 176.733 116.269 179.004C112.929 181.943 112.662 182.478 108.788 185.684C105.848 187.822 107.452 186.753 103.978 189.024C101.573 190.761 44.9265 234.181 48.801 231.643C55.7482 227.234 94.8932 203.854 95.6948 203.319C98.0996 201.583 96.7636 202.651 99.8364 200.514C107.452 194.902 101.84 199.044 106.65 195.303C109.322 193.299 126.289 181.943 138.046 174.862C151.54 166.713 165.167 158.563 178.527 150.146C180.13 149.077 181.734 148.944 183.47 148.944C190.15 148.81 196.697 148.409 203.377 147.741C204.98 147.608 206.45 147.341 208.053 147.073C208.721 146.94 208.721 147.073 208.587 147.741C207.786 151.482 218.875 152.418 218.34 156.158C217.939 159.098 211.259 163.239 211.66 166.178C211.66 166.446 219.943 165.243 220.211 166.98C221.012 171.79 214.332 182.478 214.866 181.81C215.267 181.275 215.534 180.741 215.935 180.206C216.069 180.206 216.203 180.206 216.069 180.34C215.668 181.943 215.134 183.546 214.733 185.15C214.599 185.684 214.065 191.162 219.943 186.886C220.478 186.753 220.879 186.352 221.146 185.951C223.283 184.214 225.688 182.478 227.692 180.474C228.093 180.073 228.494 179.672 228.895 179.405C229.162 179.138 229.429 179.004 229.696 178.737C233.303 175.664 236.643 172.19 239.85 168.717C242.655 165.778 245.194 162.571 247.732 159.365C248.133 158.964 248.4 158.43 248.801 158.029C248.935 157.895 248.935 157.762 249.068 157.628C252.943 152.418 256.416 147.073 259.623 141.462C262.562 136.118 264.967 128.637 265.368 126.633C266.036 124.361 264.833 120.888 263.364 118.617C262.028 116.479 260.157 114.876 257.886 113.807C257.352 113.54 257.218 113.273 257.619 112.738C258.153 111.937 258.554 111.135 258.955 110.333C260.023 108.196 261.226 106.058 262.161 103.787C262.696 102.317 263.364 100.848 264.032 99.5117C264.967 97.6413 266.303 96.1716 267.505 94.4348C267.639 94.1676 267.772 93.9004 268.04 93.4996C268.44 92.8316 268.975 91.7628 268.975 91.7628C268.708 91.0948 267.238 92.1636 266.57 92.8316C266.303 92.9652 265.902 93.0988 265.768 92.8316C265.501 92.4308 264.833 92.4308 264.566 92.03C263.764 91.2284 262.829 90.694 262.161 89.7588C260.692 87.6212 260.558 85.2164 261.092 82.8116C261.36 81.4756 262.028 80.1396 262.428 78.8036C262.428 78.4028 262.562 78.2692 262.829 78.002C263.096 77.8684 263.23 77.6012 263.364 77.334C264.299 75.998 265.368 74.6619 266.704 73.5931C268.04 72.5243 269.509 71.7227 271.246 71.4555C272.849 71.1883 275.655 71.9899 276.456 74.1275C276.59 74.3947 276.59 74.7955 276.991 74.9291C277.392 74.9291 277.525 74.6619 277.659 74.3947C278.193 73.4595 278.861 72.6579 279.396 71.5891C280.732 69.8523 281.934 67.9819 283.27 66.2451C284.873 65.3099 285.274 65.0427 285.14 64.9091Z" fill="black"/>
<path d="M202.842 62.5043C202.308 62.6379 201.907 62.7715 201.506 62.9051C201.907 62.7715 202.308 62.7715 202.575 62.6379C202.709 62.5043 202.709 62.5043 202.842 62.5043Z" fill="white"/>
<path d="M262.161 126.232C261.226 122.357 258.688 119.819 255.214 119.685C253.076 119.552 251.34 118.617 249.603 117.414C247.599 115.945 246.396 113.941 245.996 111.402C245.595 108.329 246.664 105.657 248 102.985C248.133 102.852 248.267 102.584 248.267 102.317C248 102.317 247.866 102.317 247.599 102.317C244.259 101.916 241.72 100.313 240.384 97.1068C239.449 94.8356 239.315 92.2972 239.85 89.8924C240.384 87.2204 240.251 84.8156 238.915 82.2772C238.113 80.8076 237.712 79.2044 237.979 77.4676C237.846 77.4676 237.579 77.3339 237.445 77.3339C235.04 77.3339 233.704 75.8643 233.704 73.4595C233.704 71.7227 233.704 69.9859 233.571 68.2491C233.437 66.7795 233.437 65.3099 233.036 63.8403C231.967 59.8323 229.563 56.7595 226.089 54.4882C223.016 52.4842 219.543 51.1482 215.935 50.213C213.931 49.6786 211.794 49.1442 209.79 48.877C208.988 48.7434 208.187 48.7434 207.385 48.4762C204.045 47.6746 200.571 47.541 197.098 47.1402C195.494 47.0066 194.025 47.0066 192.422 46.873C190.952 46.7394 189.349 46.873 187.879 46.873C187.612 46.873 187.211 47.0066 187.078 47.2738C186.944 47.541 187.078 47.9418 187.345 48.209C187.612 48.6098 188.013 48.877 188.414 49.1442C190.017 49.9458 191.754 49.8122 193.49 49.4114C191.887 50.881 192.154 52.4842 194.158 53.2858C194.426 53.4194 194.693 53.4194 194.96 53.553C196.563 53.8202 198.166 53.8202 199.77 53.553C198.701 53.6866 197.766 54.0874 197.365 54.4882C196.43 55.2898 196.563 56.2251 197.498 56.8931C198.3 57.2939 199.102 57.5611 199.903 57.5611C200.838 57.4275 201.64 57.4275 202.575 57.4275C201.507 57.6947 200.438 57.9619 199.502 58.6299C198.701 59.2979 198.3 60.0995 198.434 61.1683C198.567 62.1035 199.235 62.7715 200.17 63.0387C201.106 63.3059 201.907 63.3059 202.843 63.3059C203.911 63.1723 205.114 63.0387 206.183 62.7715C206.583 62.6379 207.118 62.5043 207.519 62.3707H207.652H207.786H207.652H207.519C207.385 62.3707 207.385 62.3707 207.251 62.5043C206.851 62.6379 206.45 62.7715 206.183 62.7715C204.847 63.1723 203.644 63.9739 202.575 65.1763C201.373 66.5123 201.506 68.5163 202.843 69.7187C204.179 70.7875 205.648 70.9211 207.118 71.0547C205.782 71.5891 204.312 72.3907 203.11 73.5931C201.907 74.9291 201.774 76.3987 202.575 77.8684C202.843 78.2692 203.11 78.8036 203.377 79.2044C203.911 79.7388 203.778 80.1396 203.243 80.5404C201.774 81.7428 201.239 83.346 201.239 85.2164C201.239 86.4188 201.507 87.6212 201.64 88.8236C201.774 89.8924 202.041 90.8276 201.774 91.8964C201.239 94.9692 199.636 97.374 197.231 99.2444C194.693 101.248 192.021 103.119 189.482 105.123C189.082 105.39 188.547 105.657 188.547 106.325C184.406 109.532 180.13 112.738 175.989 115.811C175.855 115.945 175.722 116.078 175.454 116.212C170.11 120.353 164.633 124.495 159.289 128.637C158.621 129.037 158.086 129.305 157.285 129.305C152.742 129.438 148.066 129.705 143.524 129.839C134.706 130.24 125.889 130.507 117.071 130.774C115.468 130.774 113.998 130.774 112.395 130.774C112.395 130.908 112.395 130.908 112.395 131.041C124.686 131.843 137.111 132.645 149.402 133.713C149.402 133.847 149.402 133.847 149.402 133.981C139.516 134.649 129.763 135.317 119.877 135.985V136.118C128.293 136.786 136.71 137.321 145.127 137.989C145.127 137.989 145.261 138.122 145.394 138.122C145.261 138.256 145.127 138.256 144.993 138.256C138.848 139.191 132.569 140.26 126.423 141.195C126.423 141.195 126.423 141.195 126.423 141.329C131.901 141.329 137.378 141.329 143.123 141.329C141.653 142.531 140.317 143.6 139.115 144.669C138.581 145.203 137.512 145.604 137.779 146.272C137.913 146.94 138.981 146.94 139.783 147.073C140.985 147.341 142.188 147.608 143.524 147.875C139.516 151.215 135.641 154.422 131.767 157.628C131.767 157.762 131.767 157.895 131.901 157.762C132.301 157.628 132.569 157.361 132.969 157.227C137.779 154.421 142.589 151.616 147.398 148.677C147.799 148.409 148.2 148.142 148.601 148.543C147.398 149.879 146.196 151.081 145.127 152.284C140.718 156.96 136.309 161.636 131.901 166.312C132.034 166.446 132.034 166.446 132.168 166.312C134.305 164.575 136.577 162.838 138.714 160.968C143.524 156.96 148.467 153.085 153.277 149.077C153.544 148.81 153.811 148.409 154.479 148.677C147.532 156.826 140.585 164.842 133.637 173.126C134.172 173.126 134.305 172.858 134.573 172.591C142.856 164.842 151.273 157.227 159.556 149.478C160.224 148.81 161.026 148.543 161.961 148.543C167.038 148.409 171.981 148.009 177.058 147.474C181.6 146.94 186.009 146.138 190.551 145.604C197.498 144.669 204.446 143.466 211.393 141.863C225.287 138.523 237.846 132.645 248.668 123.293C248.935 123.025 249.202 122.892 249.336 122.625C249.603 122.491 249.87 122.224 250.004 122.09C250.004 122.357 250.004 122.357 250.004 122.491C248.267 125.297 246.263 128.102 243.991 130.507C243.056 131.442 242.522 132.511 242.655 133.713C242.655 134.782 243.457 135.45 244.526 135.317C245.595 135.183 246.396 134.649 247.198 133.847C247.599 133.446 248 133.045 248.4 132.511C248.267 134.114 247.866 135.584 248.267 137.187C248.4 137.989 248.935 138.122 249.603 137.721C250.004 137.454 250.404 137.053 250.805 136.653C250.805 137.989 250.672 139.191 251.072 140.26C251.473 141.462 252.676 141.729 253.611 140.794C253.878 140.527 254.145 139.993 254.412 139.725C254.68 139.325 254.813 138.924 255.214 138.523C255.615 140.26 255.882 141.863 256.149 143.466C256.283 143.466 256.283 143.6 256.416 143.6C256.416 143.466 256.416 143.333 256.55 143.333C258.42 140.393 260.291 137.454 262.028 134.381C262.161 134.114 262.295 133.713 262.295 133.313C262.696 130.774 262.696 128.503 262.161 126.232Z" fill="white"/>
<path d="M270.177 67.4475C268.173 66.3787 266.169 65.1763 264.299 63.7067C265.902 63.3059 267.372 63.5731 268.975 63.7067C269.376 63.8403 271.914 64.6419 272.048 64.7755C272.181 64.9091 272.448 64.9091 272.582 65.0427C272.983 65.3099 273.517 65.5771 273.918 65.7107C274.452 66.3787 274.452 67.1803 274.052 67.8483C273.517 68.5163 272.849 68.5163 272.048 68.2491C271.647 68.1155 271.246 68.1155 270.845 67.8483C270.712 67.5811 270.311 67.7147 270.177 67.4475Z" fill="white"/>
<path d="M209.923 48.877C209.389 48.7434 208.988 48.4762 208.587 48.6098C208.855 48.3426 209.255 48.4762 209.523 48.3426C210.324 48.209 210.859 47.541 210.859 46.6058C209.79 46.3386 205.381 45.1362 203.243 44.869C202.442 44.7354 201.106 44.4682 200.705 44.4682C199.369 44.201 198.033 44.0674 196.697 43.8002C195.495 43.6666 194.159 43.533 192.956 43.3994C191.086 43.1322 189.215 42.865 187.211 42.865L184.94 42.5978C183.47 42.4642 176.523 41.9298 174.252 41.7962C169.442 41.3954 164.633 41.3954 159.957 40.9946C157.552 40.861 155.147 40.9946 152.609 40.7274C150.07 40.4602 138.848 40.0594 137.245 40.193C137.378 40.193 136.042 40.193 134.305 40.193C131.767 40.193 126.156 40.0594 125.889 40.0594C124.285 39.9258 122.816 40.0594 121.213 40.0594C113.063 40.0594 105.982 39.9258 97.8325 40.0594C97.5653 40.0594 95.4277 40.0594 94.0917 40.0594C90.7517 40.0594 89.2821 40.193 85.942 40.193C85.274 40.193 84.606 40.193 83.938 40.193C83.27 40.193 82.7356 40.193 82.0676 40.193C81.3996 40.193 80.8652 40.193 80.1972 40.193C79.262 40.3266 79.6628 40.3266 78.9948 40.4602C78.1932 40.7274 78.8612 40.4602 78.1932 40.7274C77.5252 40.9946 77.926 40.861 77.3916 40.9946C76.59 41.3954 76.3228 41.3954 76.0556 41.6626H75.922L75.7884 41.7962C75.6548 41.7962 75.6548 41.9298 75.6548 41.9298C75.6548 41.9298 75.7884 41.7962 75.3876 42.0634C75.3876 42.0634 75.1204 42.3306 74.9868 42.5978C74.7196 42.9986 74.8532 43.533 75.254 43.9338C75.3876 44.0674 75.5212 44.201 75.6548 44.3346C77.5252 45.6706 79.7964 46.0714 82.0676 46.3386C83.1364 46.4722 84.2052 46.6058 85.274 46.7394C85.274 46.873 85.274 46.873 85.274 47.0066C84.0716 47.0066 82.8692 47.2738 81.6668 47.8082C81.3996 47.9418 81.1324 47.9418 80.9988 48.0754C80.8652 48.209 80.598 48.209 80.4644 48.3426C78.8612 49.4114 78.594 50.4802 80.1972 51.549C80.3308 51.549 80.3308 51.6826 80.4644 51.8162C80.598 51.9498 80.8652 51.9498 80.9988 52.217H81.1324C81.266 52.3506 81.5332 52.3506 81.6668 52.4842C82.0676 52.6178 82.3348 52.7514 82.7356 52.885C84.2052 53.2858 85.6748 53.6866 87.1444 53.9538C89.2821 54.4882 91.4197 54.7554 93.6909 54.7554C98.6341 55.0226 103.577 54.889 108.521 54.4882C109.055 54.221 109.589 54.4882 110.124 54.3546C109.99 54.4882 109.857 54.7554 109.589 54.7554C109.456 54.7554 109.322 54.7554 109.055 54.7554C108.921 54.889 108.654 54.889 108.521 55.0226C108.253 55.2898 107.986 55.4234 107.719 55.6906C106.249 56.7595 105.849 58.0955 106.116 59.8323C106.249 60.0995 106.249 60.3667 106.383 60.5003V60.6339C106.517 60.7675 106.517 61.0347 106.784 61.1683C107.051 61.4355 107.051 61.8363 107.452 61.8363C107.719 62.2371 108.12 62.6379 108.521 62.7715C108.788 62.7715 108.921 62.9051 109.055 63.0387C109.99 63.5731 110.925 64.1075 112.128 64.2411C112.395 64.5083 112.796 64.3747 113.063 64.5083C115.067 65.0427 117.071 64.9091 119.075 64.9091C119.743 64.9091 120.411 64.9091 121.079 64.7755C122.949 64.3747 124.953 64.1075 126.824 63.4395C126.957 63.3059 127.091 63.3059 127.225 63.4395C127.358 63.5731 127.225 63.7067 127.091 63.8403C126.69 64.1075 126.289 64.2411 126.022 64.6419C124.686 66.1115 123.885 67.3139 125.621 69.4515C126.423 70.5203 127.625 70.7875 128.694 71.1883C129.629 71.3219 130.565 71.4555 131.633 71.5891C136.042 71.7227 140.317 70.7875 144.459 69.7187C145.261 69.5851 146.062 69.1843 146.998 69.1843C144.726 71.8563 146.463 75.1963 149.536 75.5971C150.338 75.7307 151.139 75.7307 151.941 75.7307C155.682 75.5971 159.022 74.3947 162.495 73.3259C162.629 73.1923 162.896 73.1923 162.762 73.4595C162.362 73.9939 161.827 74.5283 161.426 75.1963C159.957 77.6012 160.892 79.8724 163.564 80.674C165.167 81.2084 166.904 81.0748 168.507 80.8076C171.981 80.006 174.786 78.1356 177.325 75.8643C177.458 75.8643 177.592 75.8643 177.458 75.9979C175.588 81.4756 176.523 86.686 179.863 91.2284C183.337 96.038 188.414 97.5076 194.025 97.6412C193.891 98.042 193.758 98.3092 193.491 98.5764C192.689 99.5116 191.887 100.313 190.952 101.248C190.151 102.05 189.349 102.985 189.082 104.188C188.815 105.123 188.948 105.924 189.616 106.325C192.288 104.321 195.094 102.184 197.899 100.18C199.503 99.1108 200.839 97.7748 201.774 96.1716C202.976 94.1676 203.644 92.1636 203.243 89.7588C203.11 88.69 202.843 87.4876 202.709 86.4188C202.442 83.8804 202.976 81.8764 205.114 80.2732C205.247 80.1396 205.515 80.1396 205.515 79.8724C205.114 79.4716 204.847 79.2044 204.579 78.8036C204.312 78.4028 204.045 78.002 203.778 77.4676C203.11 76.1315 203.243 74.9291 204.312 73.8603C204.98 73.1923 205.648 72.6579 206.45 72.2571C207.385 71.7227 208.454 71.3219 209.523 70.7875C209.255 70.6539 208.988 70.6539 208.855 70.6539C207.519 70.6539 206.316 70.5203 205.114 69.9859C202.976 69.0507 202.575 66.7795 204.179 65.1763C205.381 63.9739 206.984 63.1723 208.721 62.6379C208.721 62.5043 208.721 62.3707 208.587 62.5043C207.919 62.6379 207.118 62.7715 206.45 62.7715C204.847 63.0387 203.377 63.3059 201.774 63.0387C200.839 62.9051 200.171 62.3707 199.903 61.4355C199.636 60.5003 200.037 59.6987 200.705 59.1643C201.774 58.3627 202.976 57.9619 204.179 57.6947C204.045 57.2939 203.778 57.4275 203.511 57.4275C202.575 57.4275 201.774 57.4275 200.839 57.2939C200.304 57.1603 199.903 57.1603 199.369 57.0267C198.701 56.8931 197.766 56.6259 197.766 55.6906C197.766 54.889 198.567 54.7554 199.102 54.4882C199.903 54.0874 200.571 53.8202 201.507 53.553C200.705 53.553 200.037 53.553 199.369 53.553C197.899 53.553 196.296 53.553 194.827 53.0186C193.09 52.3506 192.956 51.2818 194.159 49.9458C194.426 49.6786 194.827 49.4114 195.227 49.0106C194.96 48.877 194.693 49.0106 194.559 49.0106C193.09 49.2778 191.754 49.545 190.284 49.2778C189.215 49.0106 188.28 48.6098 187.879 47.541C189.883 47.541 191.754 47.541 193.758 47.541C197.365 47.6746 200.972 47.9418 204.579 48.4762C206.583 48.7434 209.389 49.1442 211.259 49.4114C211.393 49.545 210.324 49.1442 209.923 48.877Z" fill="black"/>
<path d="M278.327 74.2612C277.258 76.2652 276.857 78.4028 276.189 80.4068C274.987 84.014 273.784 87.4876 271.112 90.4268C270.578 90.9612 270.177 91.4956 269.643 91.7628C268.708 92.1636 267.772 92.9653 266.57 92.1636C266.303 92.03 265.902 92.1636 265.635 91.8964C264.833 91.2284 263.898 90.5604 263.23 89.7588C261.627 87.4876 261.36 85.0828 261.894 82.4108C262.161 80.9412 262.829 79.6052 263.364 78.2692C263.497 78.002 266.436 73.8604 268.44 72.5244C269.91 71.4555 271.647 70.6539 273.651 70.7875C275.655 70.9211 277.258 71.7227 278.193 73.5932C278.193 73.7268 278.327 73.994 278.327 74.2612Z" fill="white"/>
<path d="M186.944 50.6139C182.268 50.7475 177.726 50.7475 173.05 50.8811C165.167 51.0147 157.151 51.1483 149.269 51.2819C143.123 51.4155 136.844 51.5491 130.698 51.6827C124.686 51.8163 118.674 51.9499 112.796 52.0835C107.585 52.2171 102.241 52.3507 97.0308 52.4843C94.0916 52.6179 91.1524 52.7515 88.2131 52.6179C87.4115 52.6179 86.7435 52.3507 86.0755 52.0835C85.1403 51.5491 85.0067 50.6139 85.8083 49.8123C86.7435 48.8771 87.8123 48.6099 89.0147 48.4763C92.0876 48.2091 95.0268 48.0755 98.0996 48.0755C103.711 47.9419 109.456 47.9419 115.067 48.0755C122.949 48.2091 130.832 48.3426 138.714 48.6099C143.524 48.7435 148.333 48.8771 153.277 49.1443C161.159 49.5451 169.042 49.8123 177.058 50.2131C180.264 50.0795 183.604 50.3467 186.944 50.6139C187.078 50.4803 186.944 50.4803 186.944 50.6139C186.944 50.6139 187.078 50.6139 186.944 50.6139Z" fill="white"/>
<path d="M190.017 55.4235C182.802 55.8243 175.588 56.0915 168.373 56.4923C159.289 57.0267 150.07 57.6947 140.985 59.0307C135.775 59.6987 130.431 60.3667 125.22 61.3019C123.484 61.5691 121.88 62.1035 120.144 62.2371C119.208 62.3707 118.407 62.3707 117.472 62.1035C116.804 61.8363 116.269 61.4355 116.136 60.6339C116.002 59.8323 116.403 59.2979 117.071 59.0307C118.54 58.0955 120.277 57.8283 121.88 57.5611C127.358 56.7595 132.702 56.3587 138.18 55.9579C145.261 55.4234 152.341 55.1562 159.422 55.0226C168.24 54.7554 177.058 54.889 186.009 55.0226C187.478 55.0226 189.082 55.1563 190.551 55.1563C190.551 55.5571 190.15 55.2899 190.017 55.4235Z" fill="white"/>
<path d="M191.754 59.0307C184.138 60.0995 176.523 61.0347 168.908 62.1035C162.495 63.0387 155.949 63.9739 149.536 65.4435C146.196 66.2451 142.856 67.1803 139.382 67.7147C138.18 67.8483 136.977 68.1155 135.775 67.9819C134.706 67.8483 134.172 67.5811 134.038 66.6459C133.905 65.7107 134.439 65.3099 135.107 64.9091C136.577 64.1075 138.18 63.7067 139.783 63.4395C144.593 62.6379 149.402 62.3707 154.212 61.8363C159.289 61.3019 164.499 60.7675 169.576 60.3667C174.118 59.9659 178.527 59.5651 183.07 59.2979C185.875 59.0307 188.681 58.8971 191.486 58.7635C191.754 58.7635 191.754 58.8971 191.754 59.0307Z" fill="white"/>
<path d="M191.62 63.0387C185.875 64.2411 180.13 65.5771 174.386 66.7795C169.843 67.7147 162.762 69.1843 153.811 72.5243C152.742 72.9251 151.673 73.3259 150.471 73.3259C149.803 73.3259 149.269 73.3259 149.001 72.6579C148.734 71.9899 148.868 71.3219 149.402 70.9211C150.07 70.1195 151.005 69.7187 151.941 69.3179C154.479 68.2491 157.285 67.8483 159.957 67.4475C166.77 66.2451 173.45 65.1763 180.264 64.2411C184.005 63.7067 187.746 63.0387 191.486 62.7715C191.62 62.9051 191.62 62.9051 191.62 63.0387Z" fill="white"/>
<path d="M195.628 66.2451C191.754 67.5811 187.746 68.6499 183.871 70.1195C179.73 71.5891 175.588 73.3259 171.714 75.4635C170.11 76.3987 168.374 77.0668 166.637 77.4676C166.102 77.6012 165.568 77.7348 165.034 77.6012C163.831 77.4676 163.297 76.3987 164.098 75.3299C164.499 74.7955 165.034 74.3947 165.568 73.9939C167.839 72.6579 170.244 71.9899 172.649 71.3219C179.997 69.1843 187.345 67.4475 194.826 65.9779C195.094 65.9779 195.361 65.9779 195.628 65.8443C195.628 66.1115 195.628 66.1115 195.628 66.2451Z" fill="white"/>
<path d="M263.898 133.313C264.299 132.645 265.902 123.961 266.837 124.361C266.837 125.43 266.57 129.973 266.036 133.045C265.635 136.118 265.368 136.653 264.7 140.661C264.032 147.073 261.894 154.689 261.894 154.689C261.226 157.895 260.291 160.701 260.024 162.037C259.222 165.51 258.287 168.316 257.619 170.454C256.416 174.996 256.016 176.599 254.68 181.142C254.012 183.413 253.076 185.417 252.275 187.554C251.473 189.959 249.335 196.372 249.335 196.639C248.801 197.975 248.133 200.781 247.599 201.716C247.599 201.582 245.06 208.53 244.125 210.935C244.125 211.202 243.457 212.805 243.457 213.072C243.056 214.542 241.319 218.149 240.785 219.619C237.979 227.234 234.239 234.047 231.166 241.529C231.166 241.529 224.219 255.29 223.951 255.824C223.551 256.626 223.684 256.225 223.283 256.893C222.749 257.561 223.15 257.027 222.749 257.561C222.215 258.096 222.615 257.828 222.215 258.096C221.547 258.764 221.413 258.897 221.012 259.164C221.012 259.164 220.879 259.164 220.879 259.298L220.745 259.432C220.611 259.432 220.611 259.565 220.611 259.565C220.611 259.565 220.745 259.432 220.344 259.832C220.344 259.832 219.943 259.966 219.676 259.966C219.142 259.966 218.741 259.699 218.474 259.298C218.34 259.164 218.34 259.031 218.207 258.764C217.405 256.492 217.806 254.221 218.207 252.084C218.474 251.015 218.607 250.08 218.875 249.011C218.741 249.011 218.741 249.011 218.607 248.877C218.207 250.08 217.405 251.015 216.47 251.95C216.203 252.084 216.203 252.351 215.935 252.484C215.802 252.618 215.668 252.752 215.401 252.885C213.798 253.954 212.595 253.82 211.927 251.816C211.927 251.683 211.794 251.549 211.794 251.549C211.66 251.416 211.794 251.148 211.66 250.881V250.748C211.527 250.48 211.66 250.347 211.527 250.08C211.527 249.679 211.527 249.278 211.527 249.011C211.527 247.541 211.794 245.938 211.927 244.468C212.195 242.331 212.595 240.193 213.263 238.055C214.733 233.379 216.603 228.837 218.741 224.428C219.275 224.027 219.142 223.493 219.409 222.959C219.275 223.092 218.875 223.092 218.741 223.226C218.607 223.359 218.607 223.493 218.474 223.627C218.34 223.76 218.207 223.894 217.939 224.027C217.539 224.161 217.271 224.428 216.871 224.562C215.267 225.497 213.664 225.363 212.061 224.428C211.927 224.161 211.527 224.161 211.393 223.894L211.259 223.76C211.126 223.627 210.859 223.493 210.859 223.226C210.725 222.959 210.324 222.691 210.324 222.291C210.057 221.89 209.79 221.355 209.656 220.955C209.656 220.821 209.656 220.554 209.656 220.42C209.523 219.351 209.122 218.283 209.523 217.08C209.389 216.813 209.656 216.412 209.523 216.145C209.656 214.141 210.591 212.271 211.259 210.4C211.527 209.732 211.794 209.064 212.061 208.53C213.13 206.927 214.065 205.19 215.401 203.72C215.535 203.587 215.668 203.587 215.535 203.319C215.401 203.052 215.267 203.186 215.134 203.186C214.733 203.453 214.466 203.72 213.931 203.854C211.927 204.522 210.324 204.789 208.721 202.384C207.919 201.315 208.053 200.113 207.919 198.91C208.053 197.975 208.187 197.04 208.587 196.105C210.057 191.963 212.462 188.356 215 184.882C215.535 184.214 216.069 183.68 216.47 182.745C212.863 183.814 210.057 180.874 210.725 177.935C210.859 177.134 211.126 176.332 211.393 175.664C212.863 172.324 215.267 169.652 217.672 166.846C217.806 166.713 217.939 166.579 217.672 166.446C216.871 166.579 216.203 166.98 215.401 166.98C212.462 167.381 210.324 165.644 210.324 162.838C210.324 161.102 210.992 159.632 211.927 158.296C213.931 155.357 216.871 153.62 220.077 152.017C220.211 151.883 220.211 151.749 219.943 151.749C213.531 151.349 209.389 144.936 215 142.397C220.745 139.725 238.38 132.244 240.651 131.442C242.388 130.774 243.724 129.572 244.927 128.236C245.06 128.236 245.194 128.369 245.06 128.503C244.659 129.171 244.392 129.705 243.991 130.373C243.19 131.709 242.388 133.045 242.121 134.649C241.987 135.584 242.255 136.385 243.19 137.053C244.125 137.588 244.927 137.588 245.862 137.187C247.064 136.519 247.866 135.584 248.667 134.515C249.068 134.782 248.801 134.916 248.667 135.183C248.4 135.985 248 136.786 247.866 137.721C247.732 138.256 247.599 138.657 247.599 139.191C247.599 139.993 247.465 140.794 248.4 141.195C249.202 141.596 249.736 140.928 250.137 140.393C250.805 139.859 251.34 139.191 252.008 138.523C251.74 139.191 251.473 139.859 251.34 140.527C250.805 141.997 250.271 143.333 250.271 144.936C250.404 146.673 255.08 145.069 258.287 143.333C259.623 141.997 263.631 133.58 263.898 133.313Z" fill="black"/>
<path d="M252.408 150.814C250.805 154.956 249.202 159.098 247.465 163.106C244.66 170.186 241.854 177.134 239.048 184.214C236.911 189.692 234.639 195.17 232.368 200.781C230.231 206.125 228.093 211.335 225.955 216.679C224.085 221.355 222.215 226.031 220.344 230.707C219.275 233.246 218.207 235.784 217.271 238.456C217.004 239.124 217.004 239.792 217.138 240.594C217.405 241.663 218.34 242.064 219.409 241.796C220.745 241.396 221.413 240.46 221.947 239.392C223.283 236.853 224.352 234.181 225.421 231.509C227.425 226.566 229.429 221.489 231.166 216.279C233.704 209.198 236.109 202.117 238.514 195.036C239.984 190.627 241.453 186.218 242.789 181.81C245.06 174.595 247.332 167.381 249.603 160.166C250.538 157.094 251.473 154.021 252.408 150.948C252.542 150.814 252.542 150.814 252.408 150.814C252.542 150.814 252.542 150.814 252.408 150.814Z" fill="white"/>
<path d="M252.408 150.814C250.805 154.956 249.202 159.098 247.465 163.106C244.66 170.186 241.854 177.134 239.048 184.214C236.911 189.692 234.639 195.17 232.368 200.781C230.231 206.125 228.093 211.335 225.955 216.679C224.085 221.355 222.215 226.031 220.344 230.707C219.275 233.246 218.207 235.784 217.271 238.456C217.004 239.124 217.004 239.792 217.138 240.594C217.405 241.663 218.34 242.064 219.409 241.796C220.745 241.396 221.413 240.46 221.947 239.392C223.283 236.853 224.352 234.181 225.421 231.509C227.425 226.566 229.429 221.489 231.166 216.279C233.704 209.198 236.109 202.117 238.514 195.036C239.984 190.627 241.453 186.218 242.789 181.81C245.06 174.595 247.332 167.381 249.603 160.166C250.538 157.094 251.473 154.021 252.408 150.948C252.542 150.814 252.542 150.814 252.408 150.814ZM252.408 150.814C252.542 150.814 252.542 150.814 252.408 150.814Z" stroke="black" stroke-miterlimit="10"/>
<path d="M248.4 146.138C245.595 152.418 242.789 158.83 239.983 165.11C236.376 173.126 232.502 180.874 228.093 188.49C225.555 192.898 223.15 197.441 220.344 201.716C219.409 203.052 218.34 204.388 217.538 205.858C217.138 206.659 216.87 207.461 216.87 208.263C216.87 208.931 217.138 209.599 217.939 209.999C218.741 210.4 219.409 210.267 220.077 209.866C221.547 208.931 222.482 207.595 223.283 206.125C225.955 201.583 228.227 196.907 230.498 192.231C233.437 186.085 236.109 179.806 238.647 173.66C241.854 165.778 244.793 157.895 247.599 150.013C248.133 148.677 248.534 147.207 248.935 145.871C248.4 145.604 248.534 146.138 248.4 146.138Z" fill="white" stroke="black" stroke-miterlimit="10"/>
<path d="M245.06 143.065C241.453 149.478 237.846 155.891 234.105 162.304C230.899 167.648 227.692 173.126 224.085 178.202C222.215 180.874 219.943 183.413 218.207 186.352C217.539 187.287 217.004 188.356 216.737 189.425C216.47 190.36 216.737 191.028 217.539 191.562C218.474 192.097 219.142 191.83 219.81 191.295C221.146 190.36 222.081 189.024 222.883 187.688C225.287 183.68 227.291 179.538 229.429 175.397C231.7 170.988 233.971 166.713 236.243 162.304C238.247 158.43 240.117 154.555 241.987 150.681C243.19 148.276 244.259 145.871 245.327 143.466C245.327 143.199 245.194 143.199 245.06 143.065Z" fill="white" stroke="black" stroke-miterlimit="10"/>
<path d="M241.453 139.325C238.113 144.001 234.907 148.543 231.567 153.219C227.559 158.83 223.417 164.308 218.474 169.251C217.672 170.053 216.871 170.854 216.47 171.923C216.203 172.458 215.935 172.992 216.603 173.526C217.271 174.061 217.939 174.061 218.607 173.927C219.676 173.66 220.344 172.992 221.146 172.324C223.15 170.454 224.486 168.182 225.822 165.911C229.429 160.434 232.769 154.689 236.109 149.077C237.979 146.005 239.85 142.932 241.453 139.592C241.72 139.458 241.587 139.325 241.453 139.325Z" fill="white" stroke="black" stroke-miterlimit="10"/>
<path d="M238.514 136.786C235.842 139.725 233.303 142.798 230.498 145.737C227.425 148.81 224.352 151.883 220.611 154.422C219.142 155.49 217.806 156.693 216.737 158.162C216.47 158.563 216.203 159.098 216.069 159.498C215.802 160.701 216.737 161.502 218.073 161.235C218.741 161.102 219.409 160.834 219.943 160.434C222.081 158.964 223.684 157.094 225.287 155.223C229.963 149.478 234.372 143.6 238.514 137.588C238.648 137.321 238.781 137.187 238.915 136.92C238.781 136.92 238.648 136.786 238.514 136.786C238.514 136.786 238.648 136.786 238.514 136.786Z" fill="white"/>
<path d="M238.514 136.786C235.842 139.725 233.303 142.798 230.498 145.737C227.425 148.81 224.352 151.883 220.611 154.422C219.142 155.49 217.806 156.693 216.737 158.162C216.47 158.563 216.203 159.098 216.069 159.498C215.802 160.701 216.737 161.502 218.073 161.235C218.741 161.102 219.409 160.834 219.943 160.434C222.081 158.964 223.684 157.094 225.287 155.223C229.963 149.478 234.372 143.6 238.514 137.588C238.648 137.321 238.781 137.187 238.915 136.92C238.781 136.92 238.648 136.786 238.514 136.786ZM238.514 136.786C238.648 136.786 238.514 136.786 238.514 136.786Z" stroke="black" stroke-miterlimit="10"/>
</svg>
