<svg width="300" height="300" viewBox="0 0 300 300" fill="none"
    xmlns="http://www.w3.org/2000/svg">
    <g clip-path="url(#clip0)">
        <path d="M225.05 225.049C266.444 183.655 266.444 116.543 225.05 75.1486C183.656 33.7546 116.543 33.7546 75.1486 75.1486C33.7546 116.543 33.7546 183.655 75.1486 225.049C116.543 266.443 183.656 266.443 225.05 225.049Z" stroke="currentColor" stroke-width="5" stroke-miterlimit="10"/>
        <path d="M229.98 93.8411C226.785 93.8411 223.704 94.6398 220.624 94.5257C220.624 94.5257 220.624 94.6398 220.509 94.6398C220.509 94.6398 220.509 94.5257 220.395 94.5257C220.053 94.2975 219.597 94.0693 219.254 93.9552C219.14 93.8411 218.912 93.8411 218.798 93.727C218.684 93.6129 216.516 93.0424 216.174 92.8142C214.919 92.7001 213.664 92.586 212.408 92.8142C212.18 92.8142 211.952 92.8142 211.61 92.9283C211.039 93.1565 208.757 93.8411 208.415 93.9552C208.301 94.0693 206.133 94.9821 206.019 95.0962C203.965 96.3513 202.026 97.4922 200.086 98.9755C199.63 99.3178 196.435 101.486 196.321 101.6C195.864 101.942 193.925 102.969 193.811 103.083C193.582 103.197 193.468 103.311 193.24 103.425C193.126 103.539 192.898 103.539 192.784 103.654C192.441 103.768 192.327 103.882 191.757 103.996C191.186 104.224 191.757 103.996 191.186 104.224C190.844 104.338 190.73 104.338 190.616 104.452C190.616 104.452 190.616 104.452 190.502 104.452C189.703 104.566 189.475 104.566 189.018 104.452C188.334 104.224 187.992 103.996 187.877 103.882C187.649 103.654 187.079 103.083 187.079 102.17C187.079 102.056 187.079 102.056 187.079 101.942C187.193 101.6 187.193 101.143 187.193 100.345C187.307 97.15 187.877 96.5795 187.763 94.2975C187.649 92.1296 186.394 89.9618 185.367 88.0221C184.34 86.0825 182.173 84.1428 179.662 83.0018C177.266 81.8608 175.669 80.948 169.85 79.2366L164.83 77.9815C164.83 77.9815 158.098 76.6123 157.756 76.4982C156.615 76.27 155.474 76.1559 154.333 75.9277C153.306 75.8136 152.165 75.6995 151.138 75.5854C149.541 75.3572 147.943 75.129 146.232 75.129L144.292 74.9009C143.037 74.7868 137.104 74.3304 135.164 74.2163C131.057 73.874 126.949 73.874 122.956 73.5317C120.902 73.4176 118.848 73.5317 116.68 73.3035C114.512 73.0753 104.928 72.733 103.559 72.8471C103.673 72.8471 102.532 72.8471 101.049 72.8471C98.881 72.8471 94.0889 72.733 93.8607 72.733C92.4915 72.6189 91.2365 72.733 89.8673 72.733C82.9073 72.733 76.8601 72.6189 69.9001 72.733C69.6719 72.733 67.8464 72.733 66.7054 72.733C63.8529 72.733 62.5979 72.8471 59.7454 72.8471C59.1749 72.8471 58.6044 72.8471 58.0339 72.8471C57.4635 72.8471 57.0071 72.8471 56.4366 72.8471C55.8661 72.8471 55.4097 72.8471 54.8392 72.8471C54.0405 72.9612 54.3828 72.9612 53.8123 73.0753C53.1277 73.3035 53.6982 73.0753 53.1277 73.3035C52.5572 73.5317 52.8995 73.4176 52.4431 73.5317C51.7586 73.874 51.5304 73.874 51.3022 74.1022H51.1881L51.3022 74.2163C51.1881 74.2163 51.1881 74.3304 51.1881 74.3304C51.1881 74.3304 51.3022 74.2163 50.9599 74.4445C50.9599 74.4445 50.7317 74.6727 50.6176 74.9009C50.3894 75.2431 50.5035 75.6995 50.8458 76.0418C50.9599 76.1559 51.074 76.27 51.1881 76.3841C52.7854 77.5251 54.7251 77.8674 56.6648 78.0956C57.5776 78.2097 58.4903 78.3238 59.4031 78.4379C59.4031 78.552 59.4031 78.552 59.4031 78.6661C58.3762 78.6661 57.3494 78.8943 56.3225 79.3507C56.0943 79.4648 55.8661 79.4648 55.752 79.5789C55.6379 79.693 55.4097 79.693 55.2956 79.8071C53.9264 80.7198 53.6982 81.6326 55.0674 82.5454C55.1815 82.5454 55.1815 82.6595 55.2956 82.7736C55.4097 82.8877 55.6379 82.8877 55.752 83.1159H55.8661C55.9802 83.23 56.2084 83.23 56.3225 83.3441C56.6648 83.4582 56.893 83.5723 57.2353 83.6864C58.4903 84.0287 59.7454 84.371 61.0005 84.5992C62.8261 85.0556 64.6516 85.2838 66.5913 85.2838C70.8129 85.512 75.0345 85.3979 79.2562 85.0556C79.7126 84.8274 80.169 85.0556 80.6253 84.9415C80.5112 85.0556 80.3972 85.2838 80.169 85.2838C80.0549 85.2838 79.9408 85.2838 79.7126 85.2838C79.5985 85.3979 79.3703 85.3979 79.2562 85.512C79.028 85.7402 78.7998 85.8543 78.5716 86.0825C77.3165 86.9952 76.9742 88.1362 77.2024 89.6195C77.3165 89.8477 77.3165 90.0759 77.4306 90.19V90.3041C77.5447 90.4182 77.5447 90.6464 77.7729 90.7605C78.0011 90.9887 78.0011 91.331 78.3434 91.331C78.5716 91.6733 78.9139 92.0155 79.2562 92.1296C79.4844 92.1296 79.5985 92.2437 79.7126 92.3578C80.5112 92.8142 81.3099 93.2706 82.3368 93.3847C82.565 93.6129 82.9073 93.4988 83.1355 93.6129C84.847 94.0693 86.5584 93.9552 88.2699 93.9552C88.8404 93.9552 89.4109 93.9552 89.9814 93.8411C91.5788 93.4988 93.2902 93.2706 94.8876 92.7001C95.0017 92.586 95.1158 92.586 95.2299 92.7001C95.344 92.8142 95.2299 92.9283 95.1158 93.0424C94.7735 93.2706 94.4312 93.3847 94.203 93.727C93.062 94.9821 92.3774 96.009 93.8607 97.8345C94.5453 98.7473 95.5722 98.9755 96.485 99.3178C97.2836 99.4319 98.0823 99.546 98.9951 99.6601C102.76 99.7742 106.411 98.9755 109.949 98.0627C110.633 97.9486 111.318 97.6063 112.116 97.6063C110.177 99.8883 111.66 102.741 114.284 103.083C114.969 103.197 115.653 103.197 116.338 103.197C119.533 103.083 122.385 102.056 125.352 101.143C125.466 101.029 125.694 101.029 125.58 101.257C125.238 101.714 124.781 102.17 124.439 102.741C123.184 104.795 123.983 106.734 126.265 107.419C127.634 107.875 129.003 107.761 130.486 107.533C133.453 106.848 135.849 105.251 138.017 103.311C138.131 103.311 138.245 103.311 138.131 103.425C136.533 108.103 137.332 112.553 140.184 116.433C143.151 120.54 147.487 121.795 152.279 121.909C152.165 122.251 152.051 122.48 151.822 122.708C151.138 123.507 150.453 124.191 149.655 124.99C148.97 125.674 148.285 126.473 148.057 127.5C147.829 128.299 147.943 128.983 148.514 129.326C148.628 129.211 148.742 129.211 148.856 129.097C148.856 129.211 148.856 129.211 148.856 129.326C145.319 132.064 141.668 134.802 138.131 137.427C138.017 137.541 137.903 137.655 137.674 137.769C133.11 141.306 128.432 144.843 123.868 148.38C123.298 148.722 122.842 148.95 122.157 148.95C118.278 149.065 114.284 149.293 110.405 149.407C104.244 149.635 98.0823 149.863 92.0351 150.091C91.921 150.091 91.921 150.091 91.8069 150.091C89.4109 149.863 87.0148 149.977 84.6188 149.863C85.6457 149.863 86.6725 149.863 87.8135 149.863C89.7532 149.863 91.8069 149.863 93.7466 149.863C96.9413 149.749 100.022 149.635 103.217 149.521C105.156 149.521 107.096 149.407 109.036 149.293C110.291 149.293 111.546 149.293 112.801 149.179C115.653 148.95 118.506 148.95 121.244 148.836C122.613 148.836 123.64 148.494 124.781 147.695C129.003 144.387 133.11 141.192 137.446 137.997C137.788 137.769 138.131 137.541 138.245 137.084C138.131 136.514 137.674 136.628 137.332 136.742C133.453 137.655 129.573 138.453 125.694 139.366C120.56 140.507 115.539 141.534 110.405 142.675C105.499 143.702 100.478 144.729 95.5722 145.756C90.3237 146.897 84.9611 147.695 79.7126 148.722C72.7526 150.091 65.7926 151.461 58.8326 152.716C52.6713 153.857 46.6242 155.112 40.4629 156.367C33.8452 157.622 27.2275 158.991 20.6098 160.36C20.1534 160.474 14.7908 161.843 13.3075 162.186C12.0525 162.414 10.7974 162.528 9.54232 162.87C8.28724 163.213 2.35415 164.582 1.09907 164.582C0.984971 164.582 0.870873 164.582 0.756775 164.81C0.756775 164.924 0.870873 165.038 0.984971 165.038C1.32726 165.038 1.66956 165.152 2.01185 164.924C4.29381 164.81 6.68987 164.582 8.97183 164.354C10.9115 164.24 18.3279 163.555 19.8111 163.441C21.4085 163.327 23.12 163.213 24.7173 163.099C29.8518 162.642 34.9862 162.186 40.1206 161.729C44.4563 161.273 48.9061 160.931 53.2418 160.474C57.8058 160.018 62.2556 159.562 66.8195 159.105C71.7257 158.535 76.6319 158.078 81.6522 157.394C83.706 157.051 85.7598 157.28 87.6994 158.192C89.0686 158.877 90.3237 159.447 91.6928 160.132C95.2299 161.958 98.881 163.213 102.989 163.327C103.559 163.327 104.13 163.327 104.7 163.327C104.586 163.555 104.472 163.555 104.358 163.669C100.935 165.381 98.881 168.119 97.8541 171.77C97.1696 174.28 96.9414 176.904 96.485 179.415C95.9145 182.609 94.3171 183.75 92.0351 186.146C89.4109 188.885 89.525 188.885 87.243 190.824C84.3906 193.335 84.1624 193.791 80.8535 196.529C78.3434 198.355 79.7126 197.442 76.746 199.382C74.6923 200.865 26.3147 237.947 29.6236 235.779C35.5566 232.014 68.9873 212.047 69.6719 211.59C71.7257 210.107 70.5847 211.02 73.209 209.194C79.7126 204.402 74.9205 207.939 79.028 204.744C81.3099 203.033 95.8004 193.335 105.841 187.287C117.365 180.327 129.003 173.367 140.413 166.179C141.782 165.266 143.151 165.152 144.634 165.152C150.339 165.038 155.93 164.696 161.635 164.125C163.004 164.011 164.259 163.783 165.628 163.555C166.199 163.441 166.199 163.555 166.085 164.125C165.628 166.407 170.306 167.434 172.816 169.146C170.877 170.287 169.051 171.656 167.796 173.481C166.998 174.622 166.427 175.992 166.427 177.361C166.313 179.757 168.138 181.24 170.763 180.898C171.447 180.784 172.018 180.556 172.702 180.441C172.931 180.556 172.816 180.67 172.702 180.784C170.649 183.18 168.595 185.462 167.34 188.314C167.112 188.885 166.883 189.569 166.769 190.254C166.199 192.878 168.709 195.274 171.676 194.361C171.333 195.046 170.877 195.616 170.42 196.187C168.253 199.154 166.199 202.234 164.944 205.771C164.716 206.57 164.601 207.369 164.373 208.167C164.487 209.194 164.373 210.221 165.058 211.134C166.427 213.188 167.796 212.959 169.508 212.389C169.85 212.275 170.192 212.047 170.535 211.818C170.649 211.704 170.877 211.704 170.877 211.932C170.991 212.047 170.877 212.161 170.763 212.275C169.622 213.53 168.823 215.013 167.91 216.382C167.568 216.839 167.454 217.409 167.226 217.98C166.655 219.577 165.857 221.174 165.742 222.886C165.857 223.114 165.628 223.456 165.742 223.685C165.514 224.597 165.742 225.51 165.857 226.537C165.857 226.651 165.971 226.879 165.857 226.993C165.971 227.45 166.199 227.792 166.427 228.134C166.427 228.477 166.769 228.591 166.883 228.933C166.997 229.161 167.112 229.275 167.226 229.389C167.226 229.389 167.34 229.389 167.34 229.504C167.454 229.732 167.682 229.846 167.91 229.96C169.279 230.759 170.763 230.987 172.018 230.074C172.246 229.96 172.588 229.732 172.931 229.618C173.159 229.618 173.159 229.389 173.387 229.275C173.501 229.161 173.501 229.047 173.615 228.933C173.729 228.705 174.072 228.819 174.186 228.705C173.957 229.047 174.072 229.618 173.615 229.96C171.79 233.725 170.192 237.605 168.937 241.598C168.367 243.309 167.91 245.135 167.796 247.075C167.682 248.33 167.454 249.699 167.454 250.954C167.454 251.296 167.454 251.639 167.454 251.867C167.568 252.095 167.454 252.209 167.568 252.437V252.551C167.682 252.665 167.568 252.894 167.682 253.122C167.682 253.236 167.796 253.35 167.796 253.35C168.367 255.062 169.394 255.176 170.763 254.263C170.877 254.149 170.991 254.035 171.219 253.921C171.447 253.806 171.561 253.578 171.676 253.464C172.474 252.78 173.045 251.867 173.501 250.84C173.615 250.84 173.615 250.84 173.729 250.954C173.501 251.867 173.387 252.665 173.159 253.578C172.816 255.518 172.474 257.343 173.159 259.283C173.159 259.397 173.273 259.511 173.387 259.74C173.615 260.196 173.957 260.424 174.414 260.31C174.642 260.31 174.984 260.196 174.984 260.196C175.327 259.968 175.213 259.968 175.213 259.968C175.213 259.968 175.213 259.968 175.327 259.854L175.441 259.74C175.441 259.74 175.555 259.74 175.555 259.625C175.783 259.511 176.011 259.283 176.582 258.713C176.924 258.37 176.696 258.599 177.038 258.256C177.38 257.8 177.038 258.256 177.495 257.686C177.837 257.115 177.723 257.458 178.065 256.773C178.293 256.317 184.226 244.565 184.226 244.565C186.736 238.175 190.045 232.356 192.441 225.852C192.898 224.597 194.381 221.631 194.723 220.262C194.723 220.148 195.294 218.664 195.294 218.436C196.092 216.382 198.26 210.449 198.26 210.563C198.717 209.651 199.287 207.254 199.744 206.228C199.858 205.999 201.569 200.523 202.254 198.469C202.938 196.529 203.737 194.932 204.308 192.992C205.449 189.113 205.677 187.744 206.818 183.864C207.274 182.039 208.187 179.643 208.871 176.676C209.1 175.535 209.898 173.253 210.469 170.401C210.469 170.401 212.294 163.897 212.865 158.421C213.549 154.998 213.664 154.427 214.006 151.917C214.234 150.091 214.462 147.695 214.576 146.098C215.147 144.158 214.12 141.192 212.865 139.366C211.724 137.541 210.127 136.171 208.187 135.259C207.73 135.03 207.616 134.802 207.959 134.346C208.415 133.661 208.757 132.977 209.1 132.292C210.012 130.467 211.039 128.641 211.838 126.701C212.294 125.446 212.865 124.191 213.435 123.05C214.234 121.453 215.375 120.198 216.402 118.714C216.516 118.486 216.63 118.258 216.858 117.916C217.201 117.345 217.657 116.547 217.657 116.433C217.885 116.204 218.113 115.976 218.342 115.748C220.509 113.238 221.65 110.271 222.677 107.191C223.248 105.479 223.59 103.654 224.503 101.942C224.845 101.942 224.845 101.714 224.959 101.486C225.416 100.687 225.986 100.002 226.443 99.0896C227.584 97.6063 228.61 96.009 229.751 94.5257C229.751 94.1834 230.094 93.9552 229.98 93.8411ZM195.864 150.205C195.978 150.091 196.092 149.977 196.207 149.749C196.663 149.293 197.005 148.836 197.462 148.38C196.891 149.065 196.435 149.635 195.864 150.205ZM160.152 104.566C159.923 103.996 159.923 103.539 160.152 102.969C159.923 103.425 160.038 103.996 160.152 104.566ZM164.601 92.1296C164.487 92.1296 164.487 92.1296 164.373 92.2437C164.487 92.2437 164.601 92.1296 164.601 92.1296H164.716C164.716 92.1296 164.716 92.1296 164.601 92.1296ZM159.809 95.5526C159.581 96.2372 159.695 97.0359 160.038 97.6063C159.695 97.0359 159.581 96.2372 159.809 95.5526ZM155.474 85.8543C155.245 86.3106 155.245 86.767 155.588 87.1093C155.474 86.9952 155.36 86.767 155.245 86.4247C155.245 86.1965 155.245 85.9684 155.474 85.8543ZM156.843 90.7605C156.843 90.8746 156.843 90.9887 156.843 91.1028C156.843 90.9887 156.843 90.8746 156.843 90.7605ZM160.038 116.204C160.038 116.433 160.038 116.661 160.038 116.889C160.038 116.661 160.038 116.433 160.038 116.204ZM159.809 114.607C159.809 114.949 159.923 115.292 159.923 115.52V115.406C159.809 114.493 159.581 113.466 159.467 112.553C159.353 111.983 159.353 111.412 159.467 110.842C159.467 111.07 159.467 111.298 159.467 111.526C159.467 112.667 159.695 113.58 159.809 114.607ZM151.594 82.3172C151.48 82.7736 151.48 83.1159 151.708 83.4582C151.48 83.1159 151.48 82.6595 151.594 82.3172ZM198.146 125.903C198.374 125.903 198.603 126.017 198.603 126.131C196.207 125.903 194.381 124.876 193.126 122.936C194.267 124.533 195.864 125.56 198.146 125.903ZM187.992 104.11C188.448 104.452 189.247 104.68 189.931 104.68C190.045 104.68 190.273 104.68 190.388 104.566C190.159 104.68 190.159 104.795 190.045 105.023C189.931 105.023 189.931 105.023 189.817 105.023C187.877 105.023 186.736 103.996 186.622 102.17C186.622 102.513 186.736 102.398 186.851 102.741C187.193 103.311 187.535 103.654 187.992 104.11ZM181.602 86.0825C184.226 88.0221 185.481 91.2169 185.824 92.1296C186.052 92.7001 186.166 93.0424 186.28 93.8411C186.28 93.727 186.166 93.6129 186.166 93.4988C185.253 90.0759 183.199 87.4516 180.233 85.512C178.407 84.371 176.468 83.4582 174.414 82.6595C177.266 83.5723 179.32 84.371 181.602 86.0825ZM146.916 79.4648C146.916 79.5789 146.916 79.693 146.916 79.8071C146.802 79.693 146.802 79.5789 146.688 79.4648C146.802 79.4648 146.916 79.4648 146.916 79.4648ZM104.015 183.864C103.559 184.321 103.217 184.777 102.76 185.119C103.217 184.777 103.559 184.321 104.015 183.864C104.13 183.75 104.244 183.522 104.472 183.408C104.358 183.522 104.244 183.636 104.244 183.75C104.13 183.75 104.13 183.864 104.015 183.864ZM115.197 152.944C115.197 153.058 115.197 153.058 115.197 153.172C108.465 153.628 101.848 154.085 95.1158 154.541C94.6594 154.541 94.203 154.541 93.7466 154.427C93.5184 154.427 93.1761 154.427 92.9479 154.427C92.4915 154.427 92.0351 154.427 91.5788 154.427C91.921 154.427 92.3774 154.427 92.9479 154.427C93.1761 154.427 93.5184 154.427 93.7466 154.427C93.9748 154.427 94.203 154.427 94.3171 154.427C97.5118 154.199 100.707 153.971 103.901 153.743C106.526 153.628 109.036 153.4 111.66 153.172C112.687 153.058 113.714 153.172 114.627 152.944C114.741 152.944 114.855 152.944 114.855 152.944C114.969 152.944 115.083 152.944 115.197 152.944ZM114.512 165.495C114.512 165.609 114.398 165.609 114.512 165.495C114.398 165.609 114.398 165.609 114.512 165.495ZM97.9682 158.763C97.5118 158.763 97.1696 158.763 96.7132 158.877C97.0555 158.763 97.5118 158.763 97.9682 158.763C98.4246 158.763 98.881 158.649 99.2233 158.649C102.76 158.078 106.297 157.508 109.834 156.937C110.291 156.823 110.861 156.823 111.318 156.595C111.432 156.595 111.432 156.595 111.546 156.595C111.546 156.595 111.66 156.709 111.774 156.709C111.66 156.823 111.546 156.823 111.432 156.823C107.552 157.394 103.787 158.078 99.9079 158.649C99.2233 158.649 98.5387 158.649 97.9682 158.763ZM109.72 159.447C108.465 160.474 107.324 161.387 106.297 162.3C106.183 162.414 106.069 162.414 105.955 162.528C106.982 161.501 108.237 160.703 109.264 159.676C109.378 159.562 109.492 159.562 109.492 159.447C109.72 159.447 109.72 159.447 109.72 159.447ZM100.707 179.871C100.707 179.985 100.707 179.985 100.707 179.871C100.592 179.985 100.592 179.985 100.592 179.985C100.707 179.985 100.707 179.985 100.707 179.871ZM101.277 179.3C102.76 177.817 104.13 176.334 105.613 174.851C108.351 171.884 111.09 168.918 113.942 166.065C114.056 165.951 114.056 165.951 114.17 165.837C113.257 166.864 112.345 167.777 111.432 168.803C108.465 171.998 105.613 175.079 102.646 178.274C102.19 178.502 101.733 178.958 101.277 179.3ZM119.533 165.837C119.419 165.837 119.419 165.837 119.533 165.837C119.419 165.837 119.419 165.837 119.533 165.837C119.533 165.837 119.419 165.837 119.533 165.837ZM100.25 172.797C100.935 172.226 101.733 171.77 102.418 171.314C104.244 169.83 105.955 168.461 107.781 166.978C108.465 166.407 109.264 165.837 109.834 165.266C109.949 165.152 109.949 165.152 110.063 165.038H110.177C107.552 167.206 105.042 169.26 102.532 171.314C101.733 171.77 100.935 172.226 100.25 172.797C100.136 172.911 100.136 172.911 100.022 172.911C99.9079 172.911 99.9079 173.025 99.9079 173.025L100.022 172.911C100.136 172.911 100.136 172.797 100.25 172.797ZM209.442 143.36C208.415 141.99 206.932 141.192 205.106 141.078C203.281 140.964 201.797 140.165 200.314 139.138C199.401 138.453 198.717 137.655 198.146 136.742C198.26 136.856 198.374 137.084 198.489 137.198C199.63 138.796 201.227 139.823 203.052 140.507C203.509 140.621 203.851 140.735 204.308 140.849C206.589 140.849 208.301 141.762 209.442 143.36Z" fill="white"/>
        <path d="M164.601 92.1296C164.487 92.1296 164.487 92.1296 164.373 92.2437C164.487 92.2437 164.601 92.1296 164.601 92.1296ZM164.601 92.1296H164.716C164.716 92.1296 164.716 92.1296 164.601 92.1296ZM104.015 183.864C103.559 184.321 103.217 184.777 102.76 185.119C103.217 184.777 103.559 184.321 104.015 183.864ZM104.015 183.864C104.13 183.75 104.244 183.522 104.472 183.408C104.358 183.522 104.244 183.636 104.244 183.75C104.13 183.75 104.13 183.864 104.015 183.864ZM97.9682 158.763C97.5118 158.763 97.1696 158.763 96.7132 158.877C97.0555 158.763 97.5118 158.763 97.9682 158.763ZM97.9682 158.763C98.4246 158.763 98.881 158.649 99.2233 158.649C102.76 158.078 106.297 157.508 109.834 156.937C110.291 156.823 110.861 156.823 111.318 156.595C111.432 156.595 111.432 156.595 111.546 156.595C111.546 156.595 111.66 156.709 111.774 156.709C111.66 156.823 111.546 156.823 111.432 156.823C107.552 157.394 103.787 158.078 99.9079 158.649C99.2233 158.649 98.5387 158.649 97.9682 158.763ZM119.533 165.837C119.419 165.837 119.419 165.837 119.533 165.837C119.419 165.837 119.419 165.837 119.533 165.837ZM119.533 165.837C119.419 165.837 119.533 165.837 119.533 165.837ZM100.25 172.797C100.935 172.226 101.733 171.77 102.418 171.314C104.244 169.83 105.955 168.461 107.781 166.978C108.465 166.407 109.264 165.837 109.834 165.266C109.949 165.152 109.949 165.152 110.063 165.038H110.177C107.552 167.206 105.042 169.26 102.532 171.314C101.733 171.77 100.935 172.226 100.25 172.797ZM100.25 172.797C100.136 172.911 100.136 172.911 100.022 172.911C99.9079 172.911 99.9079 173.025 99.9079 173.025L100.022 172.911C100.136 172.911 100.136 172.797 100.25 172.797ZM229.98 93.8411C226.785 93.8411 223.704 94.6398 220.624 94.5257C220.624 94.5257 220.624 94.6398 220.509 94.6398C220.509 94.6398 220.509 94.5257 220.395 94.5257C220.053 94.2975 219.597 94.0693 219.254 93.9552C219.14 93.8411 218.912 93.8411 218.798 93.727C218.684 93.6129 216.516 93.0424 216.174 92.8142C214.919 92.7001 213.664 92.586 212.408 92.8142C212.18 92.8142 211.952 92.8142 211.61 92.9283C211.039 93.1565 208.757 93.8411 208.415 93.9552C208.301 94.0693 206.133 94.9821 206.019 95.0962C203.965 96.3513 202.026 97.4922 200.086 98.9755C199.63 99.3178 196.435 101.486 196.321 101.6C195.864 101.942 193.925 102.969 193.811 103.083C193.582 103.197 193.468 103.311 193.24 103.425C193.126 103.539 192.898 103.539 192.784 103.654C192.441 103.768 192.327 103.882 191.757 103.996C191.186 104.224 191.757 103.996 191.186 104.224C190.844 104.338 190.73 104.338 190.616 104.452C190.616 104.452 190.616 104.452 190.502 104.452C189.703 104.566 189.475 104.566 189.018 104.452C188.334 104.224 187.992 103.996 187.877 103.882C187.649 103.654 187.079 103.083 187.079 102.17C187.079 102.056 187.079 102.056 187.079 101.942C187.193 101.6 187.193 101.143 187.193 100.345C187.307 97.15 187.877 96.5795 187.763 94.2975C187.649 92.1296 186.394 89.9618 185.367 88.0221C184.34 86.0825 182.173 84.1428 179.662 83.0018C177.266 81.8608 175.669 80.948 169.85 79.2366L164.83 77.9815C164.83 77.9815 158.098 76.6123 157.756 76.4982C156.615 76.27 155.474 76.1559 154.333 75.9277C153.306 75.8136 152.165 75.6995 151.138 75.5854C149.541 75.3572 147.943 75.129 146.232 75.129L144.292 74.9009C143.037 74.7868 137.104 74.3304 135.164 74.2163C131.057 73.874 126.949 73.874 122.956 73.5317C120.902 73.4176 118.848 73.5317 116.68 73.3035C114.512 73.0753 104.928 72.733 103.559 72.8471C103.673 72.8471 102.532 72.8471 101.049 72.8471C98.881 72.8471 94.0889 72.733 93.8607 72.733C92.4915 72.6189 91.2365 72.733 89.8673 72.733C82.9073 72.733 76.8601 72.6189 69.9001 72.733C69.6719 72.733 67.8464 72.733 66.7054 72.733C63.8529 72.733 62.5979 72.8471 59.7454 72.8471C59.1749 72.8471 58.6044 72.8471 58.0339 72.8471C57.4635 72.8471 57.0071 72.8471 56.4366 72.8471C55.8661 72.8471 55.4097 72.8471 54.8392 72.8471C54.0405 72.9612 54.3828 72.9612 53.8123 73.0753C53.1277 73.3035 53.6982 73.0753 53.1277 73.3035C52.5572 73.5317 52.8995 73.4176 52.4431 73.5317C51.7586 73.874 51.5304 73.874 51.3022 74.1022H51.1881L51.3022 74.2163C51.1881 74.2163 51.1881 74.3304 51.1881 74.3304C51.1881 74.3304 51.3022 74.2163 50.9599 74.4445C50.9599 74.4445 50.7317 74.6727 50.6176 74.9009C50.3894 75.2431 50.5035 75.6995 50.8458 76.0418C50.9599 76.1559 51.074 76.27 51.1881 76.3841C52.7854 77.5251 54.7251 77.8674 56.6648 78.0956C57.5776 78.2097 58.4903 78.3238 59.4031 78.4379C59.4031 78.552 59.4031 78.552 59.4031 78.6661C58.3762 78.6661 57.3494 78.8943 56.3225 79.3507C56.0943 79.4648 55.8661 79.4648 55.752 79.5789C55.6379 79.693 55.4097 79.693 55.2956 79.8071C53.9264 80.7198 53.6982 81.6326 55.0674 82.5454C55.1815 82.5454 55.1815 82.6595 55.2956 82.7736C55.4097 82.8877 55.6379 82.8877 55.752 83.1159H55.8661C55.9802 83.23 56.2084 83.23 56.3225 83.3441C56.6648 83.4582 56.893 83.5723 57.2353 83.6864C58.4903 84.0287 59.7454 84.371 61.0005 84.5992C62.8261 85.0556 64.6516 85.2838 66.5913 85.2838C70.8129 85.512 75.0345 85.3979 79.2562 85.0556C79.7126 84.8274 80.169 85.0556 80.6253 84.9415C80.5112 85.0556 80.3972 85.2838 80.169 85.2838C80.0549 85.2838 79.9408 85.2838 79.7126 85.2838C79.5985 85.3979 79.3703 85.3979 79.2562 85.512C79.028 85.7402 78.7998 85.8543 78.5716 86.0825C77.3165 86.9952 76.9742 88.1362 77.2024 89.6195C77.3165 89.8477 77.3165 90.0759 77.4306 90.19V90.3041C77.5447 90.4182 77.5447 90.6464 77.7729 90.7605C78.0011 90.9887 78.0011 91.331 78.3434 91.331C78.5716 91.6733 78.9139 92.0155 79.2562 92.1296C79.4844 92.1296 79.5985 92.2437 79.7126 92.3578C80.5112 92.8142 81.3099 93.2706 82.3368 93.3847C82.565 93.6129 82.9073 93.4988 83.1355 93.6129C84.847 94.0693 86.5584 93.9552 88.2699 93.9552C88.8404 93.9552 89.4109 93.9552 89.9814 93.8411C91.5788 93.4988 93.2902 93.2706 94.8876 92.7001C95.0017 92.586 95.1158 92.586 95.2299 92.7001C95.344 92.8142 95.2299 92.9283 95.1158 93.0424C94.7735 93.2706 94.4312 93.3847 94.203 93.727C93.062 94.9821 92.3774 96.009 93.8607 97.8345C94.5453 98.7473 95.5722 98.9755 96.485 99.3178C97.2836 99.4319 98.0823 99.546 98.9951 99.6601C102.76 99.7742 106.411 98.9755 109.949 98.0627C110.633 97.9486 111.318 97.6063 112.116 97.6063C110.177 99.8883 111.66 102.741 114.284 103.083C114.969 103.197 115.653 103.197 116.338 103.197C119.533 103.083 122.385 102.056 125.352 101.143C125.466 101.029 125.694 101.029 125.58 101.257C125.238 101.714 124.781 102.17 124.439 102.741C123.184 104.795 123.983 106.734 126.265 107.419C127.634 107.875 129.003 107.761 130.486 107.533C133.453 106.848 135.849 105.251 138.017 103.311C138.131 103.311 138.245 103.311 138.131 103.425C136.533 108.103 137.332 112.553 140.184 116.433C143.151 120.54 147.487 121.795 152.279 121.909C152.165 122.251 152.051 122.48 151.822 122.708C151.138 123.507 150.453 124.191 149.655 124.99C148.97 125.674 148.285 126.473 148.057 127.5C147.829 128.299 147.943 128.983 148.514 129.326C148.628 129.211 148.742 129.211 148.856 129.097C148.856 129.211 148.856 129.211 148.856 129.326C145.319 132.064 141.668 134.802 138.131 137.427C138.017 137.541 137.903 137.655 137.674 137.769C133.11 141.306 128.432 144.843 123.868 148.38C123.298 148.722 122.842 148.95 122.157 148.95C118.278 149.065 114.284 149.293 110.405 149.407C104.244 149.635 98.0823 149.863 92.0351 150.091C91.921 150.091 91.921 150.091 91.8069 150.091C89.4109 149.863 87.0148 149.977 84.6188 149.863C85.6457 149.863 86.6725 149.863 87.8135 149.863C89.7532 149.863 91.8069 149.863 93.7466 149.863C96.9413 149.749 100.022 149.635 103.217 149.521C105.156 149.521 107.096 149.407 109.036 149.293C110.291 149.293 111.546 149.293 112.801 149.179C115.653 148.95 118.506 148.95 121.244 148.836C122.613 148.836 123.64 148.494 124.781 147.695C129.003 144.387 133.11 141.192 137.446 137.997C137.788 137.769 138.131 137.541 138.245 137.084C138.131 136.514 137.674 136.628 137.332 136.742C133.453 137.655 129.573 138.453 125.694 139.366C120.56 140.507 115.539 141.534 110.405 142.675C105.499 143.702 100.478 144.729 95.5722 145.756C90.3237 146.897 84.9611 147.695 79.7126 148.722C72.7526 150.091 65.7926 151.461 58.8326 152.716C52.6713 153.857 46.6242 155.112 40.4629 156.367C33.8452 157.622 27.2275 158.991 20.6098 160.36C20.1534 160.474 14.7908 161.843 13.3075 162.186C12.0525 162.414 10.7974 162.528 9.54232 162.87C8.28724 163.213 2.35415 164.582 1.09907 164.582C0.984971 164.582 0.870873 164.582 0.756775 164.81C0.756775 164.924 0.870873 165.038 0.984971 165.038C1.32726 165.038 1.66956 165.152 2.01185 164.924C4.29381 164.81 6.68987 164.582 8.97183 164.354C10.9115 164.24 18.3279 163.555 19.8111 163.441C21.4085 163.327 23.12 163.213 24.7173 163.099C29.8518 162.642 34.9862 162.186 40.1206 161.729C44.4563 161.273 48.9061 160.931 53.2418 160.474C57.8058 160.018 62.2556 159.562 66.8195 159.105C71.7257 158.535 76.6319 158.078 81.6522 157.394C83.706 157.051 85.7598 157.28 87.6994 158.192C89.0686 158.877 90.3237 159.447 91.6928 160.132C95.2299 161.958 98.881 163.213 102.989 163.327C103.559 163.327 104.13 163.327 104.7 163.327C104.586 163.555 104.472 163.555 104.358 163.669C100.935 165.381 98.881 168.119 97.8541 171.77C97.1696 174.28 96.9414 176.904 96.485 179.415C95.9145 182.609 94.3171 183.75 92.0351 186.146C89.4109 188.885 89.525 188.885 87.243 190.824C84.3906 193.335 84.1624 193.791 80.8535 196.529C78.3434 198.355 79.7126 197.442 76.746 199.382C74.6923 200.865 26.3147 237.947 29.6236 235.779C35.5566 232.014 68.9873 212.047 69.6719 211.59C71.7257 210.107 70.5847 211.02 73.209 209.194C79.7126 204.402 74.9205 207.939 79.028 204.744C81.3099 203.033 95.8004 193.335 105.841 187.287C117.365 180.327 129.003 173.367 140.413 166.179C141.782 165.266 143.151 165.152 144.634 165.152C150.339 165.038 155.93 164.696 161.635 164.125C163.004 164.011 164.259 163.783 165.628 163.555C166.199 163.441 166.199 163.555 166.085 164.125C165.628 166.407 170.306 167.434 172.816 169.146C170.877 170.287 169.051 171.656 167.796 173.481C166.998 174.622 166.427 175.992 166.427 177.361C166.313 179.757 168.138 181.24 170.763 180.898C171.447 180.784 172.018 180.556 172.702 180.441C172.931 180.556 172.816 180.67 172.702 180.784C170.649 183.18 168.595 185.462 167.34 188.314C167.112 188.885 166.883 189.569 166.769 190.254C166.199 192.878 168.709 195.274 171.676 194.361C171.333 195.046 170.877 195.616 170.42 196.187C168.253 199.154 166.199 202.234 164.944 205.771C164.716 206.57 164.601 207.369 164.373 208.167C164.487 209.194 164.373 210.221 165.058 211.134C166.427 213.188 167.796 212.959 169.508 212.389C169.85 212.275 170.192 212.047 170.535 211.818C170.649 211.704 170.877 211.704 170.877 211.932C170.991 212.047 170.877 212.161 170.763 212.275C169.622 213.53 168.823 215.013 167.91 216.382C167.568 216.839 167.454 217.409 167.226 217.98C166.655 219.577 165.857 221.174 165.742 222.886C165.857 223.114 165.628 223.456 165.742 223.685C165.514 224.597 165.742 225.51 165.857 226.537C165.857 226.651 165.971 226.879 165.857 226.993C165.971 227.45 166.199 227.792 166.427 228.134C166.427 228.477 166.769 228.591 166.883 228.933C166.997 229.161 167.112 229.275 167.226 229.389C167.226 229.389 167.34 229.389 167.34 229.504C167.454 229.732 167.682 229.846 167.91 229.96C169.279 230.759 170.763 230.987 172.018 230.074C172.246 229.96 172.588 229.732 172.931 229.618C173.159 229.618 173.159 229.389 173.387 229.275C173.501 229.161 173.501 229.047 173.615 228.933C173.729 228.705 174.072 228.819 174.186 228.705C173.957 229.047 174.072 229.618 173.615 229.96C171.79 233.725 170.192 237.605 168.937 241.598C168.367 243.309 167.91 245.135 167.796 247.075C167.682 248.33 167.454 249.699 167.454 250.954C167.454 251.296 167.454 251.639 167.454 251.867C167.568 252.095 167.454 252.209 167.568 252.437V252.551C167.682 252.665 167.568 252.894 167.682 253.122C167.682 253.236 167.796 253.35 167.796 253.35C168.367 255.062 169.394 255.176 170.763 254.263C170.877 254.149 170.991 254.035 171.219 253.921C171.447 253.806 171.561 253.578 171.676 253.464C172.474 252.78 173.045 251.867 173.501 250.84C173.615 250.84 173.615 250.84 173.729 250.954C173.501 251.867 173.387 252.665 173.159 253.578C172.816 255.518 172.474 257.343 173.159 259.283C173.159 259.397 173.273 259.511 173.387 259.74C173.615 260.196 173.957 260.424 174.414 260.31C174.642 260.31 174.984 260.196 174.984 260.196C175.327 259.968 175.213 259.968 175.213 259.968C175.213 259.968 175.213 259.968 175.327 259.854L175.441 259.74C175.441 259.74 175.555 259.74 175.555 259.625C175.783 259.511 176.011 259.283 176.582 258.713C176.924 258.37 176.696 258.599 177.038 258.256C177.38 257.8 177.038 258.256 177.495 257.686C177.837 257.115 177.723 257.458 178.065 256.773C178.293 256.317 184.226 244.565 184.226 244.565C186.736 238.175 190.045 232.356 192.441 225.852C192.898 224.597 194.381 221.631 194.723 220.262C194.723 220.148 195.294 218.664 195.294 218.436C196.092 216.382 198.26 210.449 198.26 210.563C198.717 209.651 199.287 207.254 199.744 206.228C199.858 205.999 201.569 200.523 202.254 198.469C202.938 196.529 203.737 194.932 204.308 192.992C205.449 189.113 205.677 187.744 206.818 183.864C207.274 182.039 208.187 179.643 208.871 176.676C209.1 175.535 209.898 173.253 210.469 170.401C210.469 170.401 212.294 163.897 212.865 158.421C213.549 154.998 213.664 154.427 214.006 151.917C214.234 150.091 214.462 147.695 214.576 146.098C215.147 144.158 214.12 141.192 212.865 139.366C211.724 137.541 210.127 136.171 208.187 135.259C207.73 135.03 207.616 134.802 207.959 134.346C208.415 133.661 208.757 132.977 209.1 132.292C210.012 130.467 211.039 128.641 211.838 126.701C212.294 125.446 212.865 124.191 213.435 123.05C214.234 121.453 215.375 120.198 216.402 118.714C216.516 118.486 216.63 118.258 216.858 117.916C217.201 117.345 217.657 116.547 217.657 116.433C217.885 116.204 218.113 115.976 218.342 115.748C220.509 113.238 221.65 110.271 222.677 107.191C223.248 105.479 223.59 103.654 224.503 101.942C224.845 101.942 224.845 101.714 224.959 101.486C225.416 100.687 225.986 100.002 226.443 99.0896C227.584 97.6063 228.61 96.009 229.751 94.5257C229.751 94.1834 230.094 93.9552 229.98 93.8411ZM195.864 150.205C195.978 150.091 196.092 149.977 196.207 149.749C196.663 149.293 197.005 148.836 197.462 148.38C196.891 149.065 196.435 149.635 195.864 150.205ZM160.152 104.566C159.923 103.996 159.923 103.539 160.152 102.969C159.923 103.425 160.038 103.996 160.152 104.566ZM159.809 95.5526C159.581 96.2372 159.695 97.0359 160.038 97.6063C159.695 97.0359 159.581 96.2372 159.809 95.5526ZM155.474 85.8543C155.245 86.3106 155.245 86.767 155.588 87.1093C155.474 86.9952 155.36 86.767 155.245 86.4247C155.245 86.1965 155.245 85.9684 155.474 85.8543ZM156.843 90.7605C156.843 90.8746 156.843 90.9887 156.843 91.1028C156.843 90.9887 156.843 90.8746 156.843 90.7605ZM160.038 116.204C160.038 116.433 160.038 116.661 160.038 116.889C160.038 116.661 160.038 116.433 160.038 116.204ZM159.809 114.607C159.809 114.949 159.923 115.292 159.923 115.52V115.406C159.809 114.493 159.581 113.466 159.467 112.553C159.353 111.983 159.353 111.412 159.467 110.842C159.467 111.07 159.467 111.298 159.467 111.526C159.467 112.667 159.695 113.58 159.809 114.607ZM151.594 82.3172C151.48 82.7736 151.48 83.1159 151.708 83.4582C151.48 83.1159 151.48 82.6595 151.594 82.3172ZM198.146 125.903C198.374 125.903 198.603 126.017 198.603 126.131C196.207 125.903 194.381 124.876 193.126 122.936C194.267 124.533 195.864 125.56 198.146 125.903ZM187.992 104.11C188.448 104.452 189.247 104.68 189.931 104.68C190.045 104.68 190.273 104.68 190.388 104.566C190.159 104.68 190.159 104.795 190.045 105.023C189.931 105.023 189.931 105.023 189.817 105.023C187.877 105.023 186.736 103.996 186.622 102.17C186.622 102.513 186.736 102.398 186.851 102.741C187.193 103.311 187.535 103.654 187.992 104.11ZM181.602 86.0825C184.226 88.0221 185.481 91.2169 185.824 92.1296C186.052 92.7001 186.166 93.0424 186.28 93.8411C186.28 93.727 186.166 93.6129 186.166 93.4988C185.253 90.0759 183.199 87.4516 180.233 85.512C178.407 84.371 176.468 83.4582 174.414 82.6595C177.266 83.5723 179.32 84.371 181.602 86.0825ZM146.916 79.4648C146.916 79.5789 146.916 79.693 146.916 79.8071C146.802 79.693 146.802 79.5789 146.688 79.4648C146.802 79.4648 146.916 79.4648 146.916 79.4648ZM115.197 152.944C115.197 153.058 115.197 153.058 115.197 153.172C108.465 153.628 101.848 154.085 95.1158 154.541C94.6594 154.541 94.203 154.541 93.7466 154.427C93.5184 154.427 93.1761 154.427 92.9479 154.427C92.4915 154.427 92.0351 154.427 91.5788 154.427C91.921 154.427 92.3774 154.427 92.9479 154.427C93.1761 154.427 93.5184 154.427 93.7466 154.427C93.9748 154.427 94.203 154.427 94.3171 154.427C97.5118 154.199 100.707 153.971 103.901 153.743C106.526 153.628 109.036 153.4 111.66 153.172C112.687 153.058 113.714 153.172 114.627 152.944C114.741 152.944 114.855 152.944 114.855 152.944C114.969 152.944 115.083 152.944 115.197 152.944ZM114.512 165.495C114.512 165.609 114.398 165.609 114.512 165.495C114.398 165.609 114.398 165.609 114.512 165.495ZM109.72 159.447C108.465 160.474 107.324 161.387 106.297 162.3C106.183 162.414 106.069 162.414 105.955 162.528C106.982 161.501 108.237 160.703 109.264 159.676C109.378 159.562 109.492 159.562 109.492 159.447C109.72 159.447 109.72 159.447 109.72 159.447ZM100.707 179.871C100.707 179.985 100.707 179.985 100.707 179.871C100.592 179.985 100.592 179.985 100.592 179.985C100.707 179.985 100.707 179.985 100.707 179.871ZM101.277 179.3C102.76 177.817 104.13 176.334 105.613 174.851C108.351 171.884 111.09 168.918 113.942 166.065C114.056 165.951 114.056 165.951 114.17 165.837C113.257 166.864 112.345 167.777 111.432 168.803C108.465 171.998 105.613 175.079 102.646 178.274C102.19 178.502 101.733 178.958 101.277 179.3ZM209.442 143.36C208.415 141.99 206.932 141.192 205.106 141.078C203.281 140.964 201.797 140.165 200.314 139.138C199.401 138.453 198.717 137.655 198.146 136.742C198.26 136.856 198.374 137.084 198.489 137.198C199.63 138.796 201.227 139.823 203.052 140.507C203.509 140.621 203.851 140.735 204.308 140.849C206.589 140.849 208.301 141.762 209.442 143.36Z" stroke="white" stroke-width="3" stroke-miterlimit="10"/>
        <path d="M170.535 79.1225C176.354 80.7199 177.951 81.7468 180.347 82.8877C182.857 84.0287 184.911 85.8543 186.052 87.9081C187.079 89.8477 188.448 92.0156 188.448 94.1834C188.562 96.5795 187.992 97.0359 187.877 100.231C187.763 103.425 187.193 101.942 187.193 101.942C187.193 101.942 186.965 100.459 186.965 96.9218C186.965 93.613 186.736 93.0425 186.394 92.1297C185.938 91.2169 184.797 88.0222 182.173 86.0825C179.548 84.1428 177.266 83.3441 173.615 82.3173C169.964 81.2904 166.883 81.1763 166.655 80.834C166.313 80.4917 160.494 78.4379 165.742 77.9815" fill="black"/>
        <path d="M230.436 93.727C227.241 93.727 224.161 94.5257 221.08 94.4116C220.852 94.6398 221.08 94.9821 221.08 95.2103C221.08 96.1231 220.623 96.5795 219.711 96.3513C219.254 96.2372 218.912 96.1231 218.57 96.009C218.342 96.009 218.113 95.8949 217.999 95.6667C217.201 95.2103 216.402 94.7539 215.717 94.2975C214.805 93.727 214.006 93.0425 212.979 92.7002C212.751 92.7002 212.523 92.7002 212.18 92.8143C211.61 93.0425 209.328 93.727 208.985 93.8411C208.871 93.9552 206.704 94.868 206.589 94.9821C204.536 96.2372 202.596 97.3782 200.656 98.8615C200.2 99.2037 197.005 101.372 196.891 101.486C196.435 101.828 194.495 102.855 194.381 102.969C194.153 103.083 194.039 103.197 193.81 103.311C193.696 103.425 193.468 103.425 193.354 103.539C193.012 103.654 192.898 103.768 192.327 103.882C191.757 104.11 192.327 103.882 191.757 104.11C191.186 104.224 191.3 104.338 190.844 104.452C190.502 104.566 190.502 104.909 190.502 105.251C190.502 105.936 190.616 106.506 190.73 107.077C191.072 108.217 191.643 109.358 192.099 110.499C192.441 111.298 192.669 111.983 192.441 112.896C191.985 114.493 191.985 116.204 191.985 117.916C191.985 121.681 194.039 125.218 198.603 125.903C199.173 126.017 199.173 126.245 198.945 126.587C198.374 127.614 198.032 128.641 197.69 129.782C197.005 132.406 197.119 135.031 198.831 137.198C199.972 138.796 201.569 139.823 203.395 140.507C203.851 140.621 204.193 140.735 204.65 140.85C207.502 140.964 209.556 142.333 210.583 145.071C211.496 147.239 211.496 149.635 211.382 151.917C211.382 152.373 211.153 152.716 210.925 153.172C210.126 154.541 209.328 155.91 208.415 157.28C207.845 158.192 207.388 159.105 206.589 160.018C206.361 159.105 206.247 158.306 206.019 157.508C205.905 157.166 206.019 156.595 205.448 156.595C204.992 156.481 204.878 156.937 204.65 157.28C204.422 157.622 204.193 157.964 204.079 158.306C203.851 158.763 203.395 158.877 202.938 158.763C202.482 158.649 202.368 158.306 202.254 157.964C202.026 157.28 202.14 156.595 202.14 155.91C202.14 155.112 201.797 154.884 201.113 155.34C200.885 155.568 200.542 155.91 200.2 155.682C199.858 155.454 199.858 154.998 199.858 154.655C199.858 154.427 199.858 154.313 199.858 154.085C199.972 153.514 199.972 152.83 200.086 152.259C200.086 152.031 200.086 151.803 199.858 151.689C199.629 151.575 199.401 151.689 199.287 151.803C199.059 152.031 198.831 152.259 198.603 152.487C198.032 153.058 197.348 153.4 196.549 153.628C195.636 153.857 195.18 153.4 195.18 152.487C195.18 151.461 195.75 150.662 196.321 149.977C196.891 149.407 197.462 148.836 197.918 148.152C199.059 146.668 200.2 145.185 201.113 143.588C201.341 143.246 201.569 142.903 201.227 142.675C200.885 142.447 200.542 142.675 200.314 142.903L200.2 143.017C198.831 144.158 197.348 145.299 195.864 146.44C190.045 150.89 183.656 154.313 176.696 156.709C171.79 158.421 166.769 159.676 161.749 160.588C158.44 161.273 155.017 161.844 151.708 162.3C147.259 162.985 142.809 163.669 138.359 164.125C135.963 164.354 133.453 164.582 131.057 164.81C129.345 164.924 127.634 165.038 125.808 164.924C125.009 164.924 124.439 165.152 123.754 165.723C120.902 168.347 118.049 170.971 115.197 173.596C112.915 175.763 110.519 177.817 108.237 179.985C107.438 180.67 106.754 181.468 105.955 182.153C105.27 182.723 104.586 183.408 103.901 183.979C103.445 184.435 103.103 184.891 102.646 185.234C102.989 184.777 103.445 184.321 103.901 183.979C105.499 182.267 107.096 180.213 108.693 178.274C112.116 174.28 115.539 170.173 119.076 166.179C119.19 166.065 119.305 165.837 119.419 165.723C119.533 165.266 119.305 165.038 118.848 165.038C118.392 165.152 118.164 165.381 117.821 165.609C114.969 167.891 112.116 170.173 109.264 172.569C106.526 174.851 103.673 177.019 101.049 179.415C100.821 179.643 100.707 179.757 100.478 179.985L100.364 180.099L100.478 179.985C100.707 179.757 100.821 179.643 101.049 179.415C102.532 177.931 103.901 176.448 105.385 174.965C108.123 171.998 110.861 169.032 113.714 166.179C114.056 165.837 114.626 165.495 114.17 164.924C113.828 164.468 113.257 164.81 112.801 165.038C111.318 165.837 109.834 166.75 108.465 167.548C105.613 169.26 102.532 170.857 99.7938 172.797C99.6797 172.797 99.6797 172.911 99.5656 172.911C99.4515 172.911 99.4515 173.025 99.4515 173.025C99.4515 173.025 99.4515 173.025 99.3374 173.139C99.3374 173.139 99.3374 173.139 99.4515 173.025L99.5656 172.911C99.6797 172.911 99.6797 172.797 99.7938 172.797C100.478 172.226 101.277 171.77 101.962 171.314C103.787 169.83 105.499 168.461 107.324 166.978C108.009 166.407 108.807 165.837 109.378 165.266C109.606 165.038 109.834 164.924 109.72 164.582C109.606 164.24 109.264 164.24 109.036 164.125C108.922 164.125 108.693 164.125 108.579 164.011C107.667 163.783 106.64 163.669 105.727 163.327C105.042 163.099 105.042 163.099 105.613 162.528C106.64 161.501 107.895 160.703 108.922 159.676C109.15 159.447 109.492 159.219 109.264 158.877C109.15 158.535 108.693 158.535 108.351 158.535C107.552 158.649 106.868 158.649 106.069 158.649C103.217 158.649 100.25 158.535 97.3977 158.763C96.9413 158.763 96.599 158.763 96.1426 158.877C96.0285 158.877 95.8003 158.877 95.6862 158.877C95.8003 158.877 96.0285 158.877 96.1426 158.877C96.599 158.877 96.9413 158.763 97.3977 158.763C97.8541 158.763 98.3105 158.649 98.6528 158.649C102.19 158.078 105.727 157.508 109.264 156.937C109.834 156.823 110.519 156.937 110.975 156.481C111.089 156.367 111.089 156.139 110.975 156.025C110.861 155.91 110.633 155.91 110.405 155.796C109.492 155.568 108.465 155.568 107.438 155.568C105.156 155.454 102.76 155.226 100.478 155.112C97.9682 154.998 95.3439 154.655 92.9479 154.541C92.7197 154.541 92.3774 154.541 92.1492 154.541C91.6928 154.541 91.2364 154.541 90.78 154.541C91.1223 154.541 91.5787 154.541 92.1492 154.541C92.3774 154.541 92.7197 154.541 92.9479 154.541C93.1761 154.541 93.4043 154.541 93.5184 154.541C96.7131 154.313 99.9079 154.085 103.103 153.857C105.727 153.743 108.237 153.514 110.861 153.286C111.888 153.172 112.915 153.286 113.828 153.058C114.056 152.944 114.512 153.058 114.512 152.602C114.512 152.259 114.17 152.145 113.828 152.145C111.66 151.917 109.378 151.689 107.21 151.575C104.928 151.461 102.646 151.232 100.364 151.118C97.1695 150.89 93.9748 150.662 90.78 150.434C88.384 150.206 85.9879 150.32 83.5919 150.206C84.6187 150.206 85.6456 150.206 86.7866 150.206C88.7263 150.206 90.78 150.206 92.7197 150.206C95.9144 150.091 98.9951 149.977 102.19 149.863C104.129 149.863 106.069 149.749 108.009 149.635C109.264 149.635 110.519 149.635 111.774 149.521C114.626 149.293 117.479 149.293 120.217 149.179C121.586 149.179 122.613 148.836 123.754 148.038C127.976 144.729 132.083 141.534 136.419 138.339C136.761 138.111 137.104 137.883 137.218 137.427C137.104 136.856 136.647 136.97 136.305 137.084C132.426 137.997 128.546 138.796 124.667 139.709C119.533 140.85 114.512 141.876 109.378 143.017C104.472 144.044 99.4515 145.071 94.5453 146.098C89.2967 147.239 83.9341 148.038 78.6856 149.065C71.7257 150.434 64.7657 151.803 57.8057 153.058C51.6444 154.199 45.5972 155.454 39.4359 156.709C32.8183 157.964 26.2006 159.333 19.5829 160.703C19.1265 160.817 13.7639 162.186 12.2806 162.528C11.0256 162.756 9.77048 162.87 8.5154 163.213C7.26032 163.555 1.32723 164.924 0.0721523 164.924C-0.0419457 164.924 -0.156044 164.924 -0.270142 165.152C-0.270142 165.266 -0.156044 165.381 -0.0419457 165.381C0.300348 165.381 0.642642 165.495 0.984936 165.266C3.26689 165.152 5.66295 164.924 7.94491 164.696C9.88458 164.582 17.3009 163.897 18.7842 163.783C20.3816 163.669 22.0931 163.555 23.6904 163.441C28.8248 162.985 33.9592 162.528 39.0937 162.072C43.4294 161.615 47.8792 161.273 52.2149 160.817C56.7788 160.36 61.2287 159.904 65.7926 159.447C70.6988 158.877 75.605 158.421 80.6253 157.736C82.6791 157.394 84.7328 157.622 86.6725 158.535C88.0417 159.219 89.2967 159.79 90.6659 160.474C94.203 162.3 97.8541 163.555 101.962 163.669C102.532 163.669 103.103 163.669 103.673 163.669C103.559 163.897 103.445 163.897 103.331 164.011C99.9079 165.723 97.8541 168.461 96.8272 172.112C96.1426 174.622 95.9144 177.247 95.458 179.757C94.8875 182.952 93.2902 184.093 91.0082 186.489C88.384 189.227 88.4981 189.227 86.2161 191.167C83.3637 193.677 83.1355 194.133 79.8266 196.872C77.3165 198.697 78.6856 197.784 75.7191 199.724C73.6653 201.207 25.2878 238.289 28.5966 236.121C34.5297 232.356 67.9604 212.389 68.645 211.933C70.6988 210.449 69.5578 211.362 72.1821 209.536C78.6856 204.744 73.8935 208.281 78.0011 205.087C80.283 203.375 94.7735 193.677 104.814 187.63C116.338 180.67 127.976 173.71 139.386 166.522C140.755 165.609 142.124 165.495 143.607 165.495C149.312 165.381 154.903 165.038 160.608 164.468C161.977 164.354 163.232 164.125 164.601 163.897C165.172 163.783 165.172 163.897 165.058 164.468C164.373 167.663 173.843 168.461 173.387 171.656C173.045 174.166 167.34 177.703 167.682 180.213C167.682 180.441 174.756 179.415 174.984 180.898C175.669 185.005 169.964 194.133 170.42 193.563C170.763 193.106 170.991 192.65 171.333 192.194C171.447 192.194 171.561 192.194 171.447 192.308C171.105 193.677 170.649 195.046 170.306 196.415C170.192 196.872 169.736 201.55 174.756 197.898C175.213 197.784 175.555 197.442 175.783 197.1C177.609 195.617 179.662 194.133 181.374 192.422C181.716 192.079 182.058 191.737 182.401 191.509C182.629 191.281 182.857 191.167 183.085 190.939C186.166 188.314 189.018 185.348 191.757 182.381C194.153 179.871 196.321 177.133 198.488 174.394C198.831 174.052 199.059 173.596 199.401 173.253C199.515 173.139 199.515 173.025 199.629 172.911C202.938 168.461 205.905 163.897 208.643 159.105C211.153 154.541 213.207 148.152 213.549 146.44C214.12 144.501 213.093 141.534 211.838 139.594C210.697 137.769 209.1 136.4 207.16 135.487C206.704 135.259 206.589 135.031 206.932 134.574C207.388 133.89 207.73 133.205 208.073 132.52C208.985 130.695 210.012 128.869 210.811 126.93C211.267 125.674 211.838 124.419 212.408 123.278C213.207 121.681 214.348 120.426 215.375 118.943C215.489 118.714 215.603 118.486 215.831 118.144C216.174 117.574 216.63 116.661 216.63 116.661C216.402 116.09 215.147 117.003 214.576 117.574C214.348 117.688 214.006 117.802 213.892 117.574C213.664 117.231 213.093 117.231 212.865 116.889C212.18 116.204 211.382 115.748 210.811 114.949C209.556 113.124 209.442 111.07 209.898 109.016C210.126 107.875 210.697 106.734 211.039 105.593C211.039 105.251 211.153 105.137 211.382 104.909C211.61 104.795 211.724 104.566 211.838 104.338C212.637 103.197 213.549 102.056 214.69 101.143C215.831 100.231 217.086 99.546 218.57 99.3178C219.939 99.0897 222.335 99.7742 223.02 101.6C223.134 101.828 223.134 102.17 223.476 102.284C223.818 102.284 223.932 102.056 224.046 101.828C224.503 101.029 225.073 100.345 225.53 99.4319C226.671 97.9487 227.698 96.3513 228.839 94.868C230.208 94.0693 230.55 93.8411 230.436 93.727Z" fill="black"/>
        <path d="M160.152 91.6733C159.695 91.7874 159.353 91.9015 159.011 92.0156C159.353 91.9015 159.695 91.9015 159.923 91.7874C160.037 91.6733 160.037 91.6733 160.152 91.6733Z" fill="white"/>
        <path d="M210.811 146.098C210.012 142.789 207.845 140.621 204.878 140.507C203.052 140.393 201.569 139.594 200.086 138.568C198.374 137.312 197.348 135.601 197.005 133.433C196.663 130.809 197.576 128.527 198.717 126.245C198.831 126.131 198.945 125.903 198.945 125.674C198.717 125.674 198.603 125.674 198.374 125.674C195.522 125.332 193.354 123.963 192.213 121.225C191.414 119.285 191.3 117.117 191.757 115.063C192.213 112.781 192.099 110.728 190.958 108.56C190.273 107.305 189.931 105.936 190.159 104.452C190.045 104.452 189.817 104.338 189.703 104.338C187.649 104.338 186.508 103.083 186.508 101.029C186.508 99.546 186.508 98.0628 186.394 96.5795C186.28 95.3244 186.28 94.0693 185.938 92.8143C185.025 89.3913 182.971 86.7671 180.005 84.8274C177.38 83.1159 174.414 81.9749 171.333 81.1763C169.622 80.7199 167.796 80.2635 166.085 80.0353C165.4 79.9212 164.716 79.9212 164.031 79.693C161.178 79.0084 158.212 78.8943 155.245 78.552C153.876 78.4379 152.621 78.4379 151.252 78.3238C149.997 78.2097 148.628 78.3238 147.373 78.3238C147.144 78.3238 146.802 78.4379 146.688 78.6661C146.574 78.8943 146.688 79.2366 146.916 79.4648C147.144 79.8071 147.487 80.0353 147.829 80.2635C149.198 80.9481 150.681 80.834 152.165 80.4917C150.796 81.7468 151.024 83.1159 152.735 83.8005C152.963 83.9146 153.192 83.9146 153.42 84.0287C154.789 84.2569 156.158 84.2569 157.527 84.0287C156.615 84.1428 155.816 84.4851 155.474 84.8274C154.675 85.512 154.789 86.3107 155.588 86.8812C156.272 87.2235 156.957 87.4516 157.641 87.4516C158.44 87.3375 159.125 87.3376 159.923 87.3376C159.011 87.5657 158.098 87.7939 157.299 88.3644C156.615 88.9349 156.272 89.6195 156.386 90.5323C156.5 91.331 157.071 91.9015 157.87 92.1297C158.668 92.3579 159.353 92.3579 160.152 92.3579C161.064 92.2438 162.091 92.1297 163.004 91.9015C163.346 91.7874 163.803 91.6733 164.145 91.5592H164.259H164.373H164.259H164.145C164.031 91.5592 164.031 91.5592 163.917 91.6733C163.575 91.7874 163.232 91.9015 163.004 91.9015C161.863 92.2438 160.836 92.9284 159.923 93.9552C158.897 95.0962 159.011 96.8077 160.152 97.8346C161.293 98.7473 162.548 98.8614 163.803 98.9755C162.662 99.4319 161.407 100.117 160.38 101.143C159.353 102.284 159.239 103.539 159.923 104.795C160.152 105.137 160.38 105.593 160.608 105.936C161.064 106.392 160.95 106.734 160.494 107.076C159.239 108.103 158.782 109.473 158.782 111.07C158.782 112.097 159.011 113.124 159.125 114.151C159.239 115.063 159.467 115.862 159.239 116.775C158.782 119.399 157.413 121.453 155.359 123.05C153.192 124.762 150.91 126.359 148.742 128.071C148.4 128.299 147.943 128.527 147.943 129.097C144.406 131.836 140.755 134.574 137.218 137.198C137.104 137.312 136.99 137.427 136.762 137.541C132.198 141.078 127.52 144.615 122.956 148.152C122.385 148.494 121.929 148.722 121.244 148.722C117.365 148.836 113.371 149.065 109.492 149.179C101.962 149.521 94.4312 149.749 86.9007 149.977C85.5315 149.977 84.2765 149.977 82.9073 149.977C82.9073 150.091 82.9073 150.091 82.9073 150.206C93.4043 150.89 104.015 151.575 114.512 152.487C114.512 152.602 114.512 152.602 114.512 152.716C106.069 153.286 97.74 153.857 89.2968 154.427V154.541C96.485 155.112 103.673 155.568 110.861 156.139C110.861 156.139 110.975 156.253 111.089 156.253C110.975 156.367 110.861 156.367 110.747 156.367C105.499 157.165 100.136 158.078 94.8876 158.877C94.8876 158.877 94.8876 158.877 94.8876 158.991C99.5656 158.991 104.244 158.991 109.15 158.991C107.895 160.018 106.754 160.931 105.727 161.844C105.27 162.3 104.358 162.642 104.586 163.213C104.7 163.783 105.613 163.783 106.297 163.897C107.324 164.125 108.351 164.354 109.492 164.582C106.069 167.434 102.76 170.173 99.4515 172.911C99.4515 173.025 99.4515 173.139 99.5656 173.025C99.9079 172.911 100.136 172.683 100.478 172.569C104.586 170.173 108.693 167.777 112.801 165.266C113.143 165.038 113.486 164.81 113.828 165.152C112.801 166.293 111.774 167.32 110.861 168.347C107.096 172.341 103.331 176.334 99.5656 180.327C99.6797 180.441 99.6797 180.441 99.7938 180.327C101.619 178.844 103.559 177.361 105.385 175.763C109.492 172.341 113.714 169.032 117.821 165.609C118.049 165.381 118.278 165.038 118.848 165.266C112.915 172.226 106.982 179.072 101.049 186.146C101.505 186.146 101.619 185.918 101.848 185.69C108.922 179.072 116.11 172.569 123.184 165.951C123.754 165.381 124.439 165.152 125.238 165.152C129.573 165.038 133.795 164.696 138.131 164.24C142.01 163.783 145.775 163.099 149.655 162.642C155.588 161.844 161.521 160.817 167.454 159.447C179.32 156.595 190.045 151.575 199.287 143.588C199.515 143.36 199.744 143.246 199.858 143.017C200.086 142.903 200.314 142.675 200.428 142.561C200.428 142.789 200.428 142.789 200.428 142.903C198.945 145.299 197.233 147.695 195.294 149.749C194.495 150.548 194.039 151.461 194.153 152.487C194.153 153.4 194.837 153.971 195.75 153.857C196.663 153.743 197.348 153.286 198.032 152.602C198.374 152.259 198.717 151.917 199.059 151.461C198.945 152.83 198.603 154.085 198.945 155.454C199.059 156.139 199.515 156.253 200.086 155.91C200.428 155.682 200.77 155.34 201.113 154.998C201.113 156.139 200.999 157.165 201.341 158.078C201.683 159.105 202.71 159.333 203.509 158.535C203.737 158.306 203.965 157.85 204.193 157.622C204.422 157.28 204.536 156.937 204.878 156.595C205.22 158.078 205.448 159.447 205.677 160.817C205.791 160.817 205.791 160.931 205.905 160.931C205.905 160.817 205.905 160.703 206.019 160.703C207.616 158.192 209.214 155.682 210.697 153.058C210.811 152.83 210.925 152.487 210.925 152.145C211.267 149.977 211.267 148.038 210.811 146.098Z" fill="white"/>
        <path d="M217.657 95.8949C215.945 94.9821 214.234 93.9552 212.637 92.7002C214.006 92.3579 215.261 92.5861 216.63 92.7002C216.972 92.8143 219.14 93.4989 219.254 93.6129C219.368 93.727 219.597 93.727 219.711 93.8411C220.053 94.0693 220.509 94.2975 220.852 94.4116C221.308 94.9821 221.308 95.6667 220.966 96.2372C220.509 96.8077 219.939 96.8077 219.254 96.5795C218.912 96.4654 218.57 96.4654 218.227 96.2372C218.113 96.009 217.771 96.1231 217.657 95.8949Z" fill="white"/>
        <path d="M166.199 80.0353C165.742 79.9212 165.4 79.693 165.058 79.8071C165.286 79.5789 165.628 79.693 165.857 79.5789C166.541 79.4648 166.998 78.8943 166.998 78.0956C166.085 77.8674 162.319 76.8405 160.494 76.6123C159.809 76.4982 158.668 76.27 158.326 76.27C157.185 76.0418 156.044 75.9278 154.903 75.6996C153.876 75.5855 152.735 75.4714 151.708 75.3573C150.111 75.1291 148.514 74.9009 146.802 74.9009L144.863 74.6727C143.607 74.5586 137.674 74.1022 135.735 73.9881C131.627 73.6458 127.52 73.6458 123.526 73.3035C121.472 73.1894 119.419 73.3035 117.251 73.0753C115.083 72.8471 105.499 72.5048 104.13 72.6189C104.244 72.6189 103.103 72.6189 101.619 72.6189C99.4515 72.6189 94.6594 72.5048 94.4312 72.5048C93.0621 72.3907 91.807 72.5048 90.4378 72.5048C83.4778 72.5048 77.4306 72.3907 70.4707 72.5048C70.2425 72.5048 68.4169 72.5048 67.2759 72.5048C64.4235 72.5048 63.1684 72.6189 60.3159 72.6189C59.7454 72.6189 59.175 72.6189 58.6045 72.6189C58.034 72.6189 57.5776 72.6189 57.0071 72.6189C56.4366 72.6189 55.9802 72.6189 55.4097 72.6189C54.611 72.733 54.9533 72.733 54.3828 72.8471C53.6983 73.0753 54.2687 72.8471 53.6983 73.0753C53.1278 73.3035 53.4701 73.1894 53.0137 73.3035C52.3291 73.6458 52.1009 73.6458 51.8727 73.874H51.7586L51.6445 73.9881C51.5304 73.9881 51.5304 74.1022 51.5304 74.1022C51.5304 74.1022 51.6445 73.9881 51.3022 74.2163C51.3022 74.2163 51.074 74.4445 50.9599 74.6727C50.7317 75.015 50.8458 75.4714 51.1881 75.8137C51.3022 75.9278 51.4163 76.0418 51.5304 76.1559C53.1278 77.2969 55.0674 77.6392 57.0071 77.8674C57.9199 77.9815 58.8327 78.0956 59.7454 78.2097C59.7454 78.3238 59.7454 78.3238 59.7454 78.4379C58.7186 78.4379 57.6917 78.6661 56.6648 79.1225C56.4366 79.2366 56.2084 79.2366 56.0943 79.3507C55.9802 79.4648 55.752 79.4648 55.6379 79.5789C54.2687 80.4917 54.0405 81.4045 55.4097 82.3172C55.5238 82.3172 55.5238 82.4313 55.6379 82.5454C55.752 82.6595 55.9802 82.6595 56.0943 82.8877H56.2084C56.3225 83.0018 56.5507 83.0018 56.6648 83.1159C57.0071 83.23 57.2353 83.3441 57.5776 83.4582C58.8327 83.8005 60.0877 84.1428 61.3428 84.371C63.1684 84.8274 64.994 85.0556 66.9336 85.0556C71.1552 85.2838 75.3769 85.1697 79.5985 84.8274C80.0549 84.5992 80.5113 84.8274 80.9677 84.7133C80.8536 84.8274 80.7395 85.0556 80.5113 85.0556C80.3972 85.0556 80.2831 85.0556 80.0549 85.0556C79.9408 85.1697 79.7126 85.1697 79.5985 85.2838C79.3703 85.512 79.1421 85.6261 78.9139 85.8543C77.6588 86.7671 77.3165 87.908 77.5447 89.3913C77.6588 89.6195 77.6588 89.8477 77.7729 89.9618V90.0759C77.887 90.19 77.887 90.4182 78.1152 90.5323C78.3434 90.7605 78.3434 91.1028 78.6857 91.1028C78.9139 91.4451 79.2562 91.7874 79.5985 91.9015C79.8267 91.9015 79.9408 92.0156 80.0549 92.1297C80.8536 92.5861 81.6523 93.0424 82.6791 93.1565C82.9073 93.3847 83.2496 93.2706 83.4778 93.3847C85.1893 93.8411 86.9008 93.727 88.6122 93.727C89.1827 93.727 89.7532 93.727 90.3237 93.6129C91.9211 93.2706 93.6325 93.0424 95.2299 92.472C95.344 92.3579 95.4581 92.3579 95.5722 92.472C95.6863 92.5861 95.5722 92.7002 95.4581 92.8142C95.1158 93.0424 94.7735 93.1565 94.5453 93.4988C93.4043 94.7539 92.7198 95.7808 94.203 97.6064C94.8876 98.5191 95.9145 98.7473 96.8273 99.0896C97.626 99.2037 98.4247 99.3178 99.3374 99.4319C103.103 99.546 106.754 98.7473 110.291 97.8346C110.975 97.7205 111.66 97.3782 112.459 97.3782C110.519 99.6601 112.002 102.513 114.627 102.855C115.311 102.969 115.996 102.969 116.68 102.969C119.875 102.855 122.728 101.828 125.694 100.915C125.808 100.801 126.036 100.801 125.922 101.029C125.58 101.486 125.124 101.942 124.781 102.513C123.526 104.566 124.325 106.506 126.607 107.191C127.976 107.647 129.459 107.533 130.828 107.305C133.795 106.62 136.191 105.023 138.359 103.083C138.473 103.083 138.587 103.083 138.473 103.197C136.876 107.875 137.674 112.325 140.527 116.204C143.493 120.312 147.829 121.567 152.621 121.681C152.507 122.023 152.393 122.252 152.165 122.48C151.48 123.278 150.796 123.963 149.997 124.762C149.312 125.446 148.628 126.245 148.4 127.272C148.171 128.071 148.285 128.755 148.856 129.097C151.138 127.386 153.534 125.56 155.93 123.849C157.299 122.936 158.44 121.795 159.239 120.426C160.266 118.714 160.836 117.003 160.494 114.949C160.38 114.036 160.152 113.01 160.038 112.097C159.809 109.929 160.266 108.217 162.091 106.848C162.205 106.734 162.434 106.734 162.434 106.506C162.091 106.164 161.863 105.936 161.635 105.593C161.407 105.251 161.179 104.909 160.95 104.452C160.38 103.311 160.494 102.284 161.407 101.372C161.977 100.801 162.548 100.345 163.232 100.002C164.031 99.546 164.944 99.2037 165.857 98.7473C165.628 98.6332 165.4 98.6332 165.286 98.6332C164.145 98.6332 163.118 98.5191 162.091 98.0628C160.266 97.2641 159.923 95.3244 161.293 93.9552C162.319 92.9283 163.689 92.2438 165.172 91.7874C165.172 91.6733 165.172 91.5592 165.058 91.6733C164.487 91.7874 163.803 91.9015 163.232 91.9015C161.863 92.1297 160.608 92.3579 159.239 92.1297C158.44 92.0156 157.87 91.5592 157.641 90.7605C157.413 89.9618 157.756 89.2772 158.326 88.8208C159.239 88.1362 160.266 87.7939 161.293 87.5657C161.179 87.2234 160.95 87.3375 160.722 87.3375C159.923 87.3375 159.239 87.3375 158.44 87.2234C157.984 87.1093 157.641 87.1093 157.185 86.9953C156.615 86.8812 155.816 86.653 155.816 85.8543C155.816 85.1697 156.501 85.0556 156.957 84.8274C157.641 84.4851 158.212 84.2569 159.011 84.0287C158.326 84.0287 157.756 84.0287 157.185 84.0287C155.93 84.0287 154.561 84.0287 153.306 83.5723C151.822 83.0018 151.708 82.089 152.735 80.9481C152.963 80.7199 153.306 80.4917 153.648 80.1494C153.42 80.0353 153.192 80.1494 153.078 80.1494C151.822 80.3776 150.682 80.6058 149.426 80.3776C148.514 80.1494 147.715 79.8071 147.373 78.8943C149.084 78.8943 150.682 78.8943 152.393 78.8943C155.474 79.0084 158.554 79.2366 161.635 79.693C163.346 79.9212 165.742 80.2635 167.34 80.4917C167.454 80.6058 166.541 80.2635 166.199 80.0353Z" fill="black"/>
        <path d="M224.617 101.714C223.704 103.425 223.362 105.251 222.791 106.962C221.765 110.043 220.738 113.01 218.456 115.52C217.999 115.976 217.657 116.433 217.201 116.661C216.402 117.003 215.603 117.688 214.576 117.003C214.348 116.889 214.006 117.003 213.778 116.775C213.093 116.204 212.294 115.634 211.724 114.949C210.355 113.01 210.127 110.956 210.583 108.674C210.811 107.419 211.382 106.278 211.838 105.137C211.952 104.909 214.462 101.372 216.174 100.231C217.429 99.3179 218.912 98.6333 220.624 98.7474C222.335 98.8615 223.704 99.546 224.503 101.143C224.503 101.258 224.617 101.486 224.617 101.714Z" fill="white"/>
        <path d="M146.574 81.5186C142.58 81.6327 138.701 81.6327 134.708 81.7468C127.976 81.8609 121.13 81.975 114.398 82.0891C109.15 82.2032 103.787 82.3173 98.5387 82.4314C93.4043 82.5454 88.2699 82.6596 83.2496 82.7736C78.7997 82.8877 74.2358 83.0018 69.786 83.1159C67.2758 83.23 64.7657 83.3441 62.2555 83.23C61.5709 83.23 61.0005 83.0018 60.43 82.7736C59.6313 82.3173 59.5172 81.5186 60.2018 80.834C61.0005 80.0353 61.9132 79.8071 62.9401 79.693C65.5644 79.4648 68.0745 79.3507 70.6988 79.3507C75.4909 79.2366 80.3971 79.2366 85.1892 79.3507C91.921 79.4648 98.6528 79.5789 105.385 79.8071C109.492 79.9212 113.6 80.0353 117.821 80.2635C124.553 80.6058 131.285 80.834 138.131 81.1763C140.869 81.0622 143.721 81.2904 146.574 81.5186C146.688 81.4045 146.574 81.4045 146.574 81.5186C146.574 81.5186 146.688 81.5186 146.574 81.5186Z" fill="white"/>
        <path d="M149.198 85.6261C143.037 85.9684 136.876 86.1966 130.714 86.5389C122.956 86.9953 115.083 87.5657 107.324 88.7067C102.874 89.2772 98.3105 89.8477 93.8607 90.6464C92.3774 90.8746 91.0082 91.331 89.5249 91.4451C88.7263 91.5592 88.0417 91.5592 87.243 91.331C86.6725 91.1028 86.2161 90.7605 86.102 90.0759C85.9879 89.3913 86.3302 88.9349 86.9007 88.7067C88.1558 87.908 89.639 87.6798 91.0082 87.4517C95.6862 86.7671 100.25 86.4248 104.928 86.0825C110.975 85.6261 117.023 85.3979 123.07 85.2838C130.6 85.0556 138.131 85.1697 145.775 85.2838C147.03 85.2838 148.399 85.3979 149.655 85.3979C149.655 85.7402 149.312 85.512 149.198 85.6261Z" fill="white"/>
        <path d="M150.681 88.7067C144.178 89.6195 137.674 90.4182 131.171 91.331C125.694 92.1297 120.103 92.9284 114.626 94.1834C111.774 94.868 108.922 95.6667 105.955 96.1231C104.928 96.2372 103.901 96.4654 102.874 96.3513C101.962 96.2372 101.505 96.009 101.391 95.2103C101.277 94.4116 101.733 94.0693 102.304 93.7271C103.559 93.0425 104.928 92.7002 106.297 92.472C110.405 91.7874 114.512 91.5592 118.62 91.1028C122.956 90.6464 127.405 90.19 131.741 89.8477C135.621 89.5054 139.386 89.1631 143.265 88.9349C145.661 88.7067 148.057 88.5926 150.453 88.4785C150.681 88.4785 150.681 88.5926 150.681 88.7067Z" fill="white"/>
        <path d="M150.567 92.1297C145.661 93.1565 140.755 94.2975 135.849 95.3244C131.969 96.1231 125.922 97.3782 118.278 100.231C117.365 100.573 116.452 100.915 115.425 100.915C114.855 100.915 114.398 100.915 114.17 100.345C113.942 99.7742 114.056 99.2037 114.512 98.8614C115.083 98.1768 115.882 97.8345 116.68 97.4923C118.848 96.5795 121.244 96.2372 123.526 95.8949C129.345 94.868 135.05 93.9552 140.869 93.1565C144.064 92.7001 147.259 92.1297 150.453 91.9015C150.567 92.0156 150.567 92.0156 150.567 92.1297Z" fill="white"/>
        <path d="M153.99 94.868C150.681 96.009 147.259 96.9218 143.95 98.1769C140.413 99.4319 136.876 100.915 133.567 102.741C132.198 103.539 130.714 104.11 129.231 104.452C128.775 104.566 128.318 104.68 127.862 104.566C126.835 104.452 126.379 103.539 127.063 102.627C127.405 102.17 127.862 101.828 128.318 101.486C130.258 100.345 132.312 99.7742 134.365 99.2037C140.641 97.3782 146.916 95.8949 153.306 94.6398C153.534 94.6398 153.762 94.6398 153.99 94.5257C153.99 94.7539 153.99 94.7539 153.99 94.868Z" fill="white"/>
        <path d="M212.294 152.145C212.637 151.575 214.006 144.158 214.805 144.501C214.805 145.413 214.576 149.293 214.12 151.917C213.778 154.541 213.549 154.998 212.979 158.421C212.408 163.897 210.583 170.401 210.583 170.401C210.012 173.139 209.214 175.535 208.986 176.676C208.301 179.643 207.502 182.039 206.932 183.864C205.905 187.744 205.563 189.113 204.422 192.992C203.851 194.932 203.052 196.643 202.368 198.469C201.683 200.523 199.858 205.999 199.858 206.228C199.401 207.369 198.831 209.765 198.374 210.563C198.374 210.449 196.207 216.382 195.408 218.436C195.408 218.664 194.837 220.033 194.837 220.262C194.495 221.517 193.012 224.597 192.555 225.852C190.159 232.356 186.965 238.175 184.34 244.565C184.34 244.565 178.407 256.317 178.179 256.773C177.837 257.458 177.951 257.115 177.609 257.686C177.152 258.256 177.494 257.8 177.152 258.256C176.696 258.713 177.038 258.484 176.696 258.713C176.125 259.283 176.011 259.397 175.669 259.625C175.669 259.625 175.555 259.625 175.555 259.74L175.441 259.854C175.327 259.854 175.327 259.968 175.327 259.968C175.327 259.968 175.441 259.854 175.098 260.196C175.098 260.196 174.756 260.31 174.528 260.31C174.072 260.31 173.729 260.082 173.501 259.74C173.387 259.625 173.387 259.511 173.273 259.283C172.588 257.344 172.931 255.404 173.273 253.578C173.501 252.665 173.615 251.867 173.843 250.954C173.729 250.954 173.729 250.954 173.615 250.84C173.273 251.867 172.588 252.665 171.79 253.464C171.561 253.578 171.561 253.806 171.333 253.921C171.219 254.035 171.105 254.149 170.877 254.263C169.508 255.176 168.481 255.062 167.91 253.35C167.91 253.236 167.796 253.122 167.796 253.122C167.682 253.008 167.796 252.78 167.682 252.551V252.437C167.568 252.209 167.682 252.095 167.568 251.867C167.568 251.525 167.568 251.182 167.568 250.954C167.568 249.699 167.796 248.33 167.91 247.075C168.138 245.249 168.481 243.424 169.051 241.598C170.306 237.605 171.904 233.725 173.729 229.96C174.186 229.618 174.072 229.161 174.3 228.705C174.186 228.819 173.843 228.819 173.729 228.933C173.615 229.047 173.615 229.161 173.501 229.275C173.387 229.39 173.273 229.504 173.045 229.618C172.702 229.732 172.474 229.96 172.132 230.074C170.763 230.873 169.394 230.759 168.024 229.96C167.91 229.732 167.568 229.732 167.454 229.504L167.34 229.389C167.226 229.275 166.997 229.161 166.997 228.933C166.883 228.705 166.541 228.477 166.541 228.134C166.313 227.792 166.085 227.336 165.971 226.993C165.971 226.879 165.971 226.651 165.971 226.537C165.856 225.624 165.514 224.711 165.856 223.685C165.742 223.456 165.971 223.114 165.856 222.886C165.971 221.174 166.769 219.577 167.34 217.98C167.568 217.409 167.796 216.839 168.024 216.382C168.937 215.013 169.736 213.53 170.877 212.275C170.991 212.161 171.105 212.161 170.991 211.933C170.877 211.704 170.763 211.818 170.649 211.818C170.306 212.047 170.078 212.275 169.622 212.389C167.91 212.959 166.541 213.188 165.172 211.134C164.487 210.221 164.601 209.194 164.487 208.167C164.601 207.369 164.716 206.57 165.058 205.771C166.313 202.234 168.367 199.154 170.534 196.187C170.991 195.617 171.447 195.16 171.79 194.361C168.709 195.274 166.313 192.764 166.883 190.254C166.997 189.569 167.226 188.885 167.454 188.314C168.709 185.462 170.763 183.18 172.816 180.784C172.931 180.67 173.045 180.556 172.816 180.441C172.132 180.556 171.561 180.898 170.877 180.898C168.367 181.24 166.541 179.757 166.541 177.361C166.541 175.878 167.112 174.622 167.91 173.482C169.622 170.971 172.132 169.488 174.87 168.119C174.984 168.005 174.984 167.891 174.756 167.891C169.279 167.548 165.742 162.072 170.534 159.904C175.441 157.622 190.502 151.232 192.441 150.548C193.925 149.977 195.066 148.95 196.092 147.809C196.207 147.809 196.321 147.924 196.207 148.038C195.864 148.608 195.636 149.065 195.294 149.635C194.609 150.776 193.925 151.917 193.696 153.286C193.582 154.085 193.81 154.769 194.609 155.34C195.408 155.796 196.092 155.796 196.891 155.454C197.918 154.884 198.603 154.085 199.287 153.172C199.629 153.4 199.401 153.514 199.287 153.743C199.059 154.427 198.717 155.112 198.603 155.91C198.489 156.367 198.374 156.709 198.374 157.165C198.374 157.85 198.26 158.535 199.059 158.877C199.744 159.219 200.2 158.649 200.542 158.192C201.113 157.736 201.569 157.165 202.14 156.595C201.911 157.165 201.683 157.736 201.569 158.306C201.113 159.562 200.656 160.703 200.656 162.072C200.77 163.555 204.764 162.186 207.502 160.703C208.643 159.562 212.066 152.373 212.294 152.145Z" fill="black"/>
        <path d="M202.482 167.092C201.113 170.629 199.744 174.166 198.26 177.589C195.864 183.636 193.468 189.569 191.072 195.617C189.247 200.295 187.307 204.973 185.367 209.765C183.542 214.329 181.716 218.778 179.891 223.342C178.293 227.336 176.696 231.329 175.098 235.323C174.186 237.49 173.273 239.658 172.474 241.94C172.246 242.511 172.246 243.081 172.36 243.766C172.588 244.679 173.387 245.021 174.3 244.793C175.441 244.45 176.011 243.652 176.468 242.739C177.609 240.571 178.521 238.289 179.434 236.007C181.146 231.786 182.857 227.45 184.34 223C186.508 216.953 188.562 210.906 190.616 204.858C191.871 201.093 193.126 197.328 194.267 193.563C196.207 187.401 198.146 181.24 200.086 175.079C200.885 172.455 201.683 169.83 202.482 167.206C202.596 167.092 202.596 167.092 202.482 167.092C202.596 167.092 202.596 167.092 202.482 167.092Z" fill="white"/>
        <path d="M202.482 167.092C201.113 170.629 199.744 174.166 198.26 177.589C195.864 183.636 193.468 189.569 191.072 195.617C189.247 200.295 187.307 204.973 185.367 209.765C183.542 214.329 181.716 218.778 179.891 223.342C178.293 227.336 176.696 231.329 175.098 235.323C174.186 237.49 173.273 239.658 172.474 241.94C172.246 242.511 172.246 243.081 172.36 243.766C172.588 244.679 173.387 245.021 174.3 244.793C175.441 244.45 176.011 243.652 176.468 242.739C177.609 240.571 178.521 238.289 179.434 236.007C181.146 231.786 182.857 227.45 184.34 223C186.508 216.953 188.562 210.906 190.616 204.858C191.871 201.093 193.126 197.328 194.267 193.563C196.207 187.401 198.146 181.24 200.086 175.079C200.885 172.455 201.683 169.83 202.482 167.206C202.596 167.092 202.596 167.092 202.482 167.092ZM202.482 167.092C202.596 167.092 202.596 167.092 202.482 167.092Z" stroke="black" stroke-miterlimit="10"/>
        <path d="M199.059 163.099C196.663 168.461 194.267 173.938 191.871 179.301C188.79 186.146 185.481 192.764 181.716 199.268C179.548 203.033 177.494 206.912 175.098 210.563C174.3 211.704 173.387 212.845 172.702 214.1C172.36 214.785 172.132 215.47 172.132 216.154C172.132 216.725 172.36 217.295 173.045 217.637C173.729 217.98 174.3 217.866 174.87 217.523C176.125 216.725 176.924 215.584 177.609 214.329C179.89 210.449 181.83 206.456 183.77 202.462C186.28 197.214 188.562 191.851 190.73 186.603C193.468 179.871 195.978 173.139 198.374 166.407C198.831 165.266 199.173 164.011 199.515 162.87C199.059 162.642 199.173 163.099 199.059 163.099Z" fill="white" stroke="black" stroke-miterlimit="10"/>
        <path d="M196.207 160.474C193.126 165.951 190.045 171.428 186.85 176.904C184.112 181.468 181.374 186.146 178.293 190.482C176.696 192.764 174.756 194.932 173.273 197.442C172.702 198.241 172.246 199.154 172.018 200.066C171.79 200.865 172.018 201.435 172.702 201.892C173.501 202.348 174.072 202.12 174.642 201.664C175.783 200.865 176.582 199.724 177.266 198.583C179.32 195.16 181.032 191.623 182.857 188.086C184.797 184.321 186.736 180.67 188.676 176.904C190.388 173.596 191.985 170.287 193.582 166.978C194.609 164.924 195.522 162.87 196.435 160.817C196.435 160.588 196.321 160.588 196.207 160.474Z" fill="white" stroke="black" stroke-miterlimit="10"/>
        <path d="M193.126 157.28C190.273 161.273 187.535 165.152 184.683 169.146C181.26 173.938 177.723 178.616 173.501 182.838C172.816 183.522 172.132 184.207 171.79 185.12C171.561 185.576 171.333 186.032 171.904 186.489C172.474 186.945 173.045 186.945 173.615 186.831C174.528 186.603 175.098 186.032 175.783 185.462C177.494 183.864 178.635 181.925 179.776 179.985C182.857 175.307 185.709 170.401 188.562 165.609C190.159 162.985 191.757 160.36 193.126 157.508C193.354 157.394 193.24 157.28 193.126 157.28Z" fill="white" stroke="black" stroke-miterlimit="10"/>
        <path d="M190.616 155.112C188.334 157.622 186.166 160.246 183.77 162.756C181.146 165.381 178.521 168.005 175.327 170.173C174.072 171.085 172.931 172.112 172.018 173.367C171.79 173.71 171.561 174.166 171.447 174.508C171.219 175.535 172.018 176.22 173.159 175.992C173.729 175.878 174.3 175.649 174.756 175.307C176.582 174.052 177.951 172.455 179.32 170.857C183.314 165.951 187.079 160.931 190.616 155.796C190.73 155.568 190.844 155.454 190.958 155.226C190.844 155.226 190.73 155.112 190.616 155.112C190.616 155.112 190.73 155.112 190.616 155.112Z" fill="white"/>
        <path d="M190.616 155.112C188.334 157.622 186.166 160.246 183.77 162.756C181.146 165.381 178.521 168.005 175.327 170.173C174.072 171.085 172.931 172.112 172.018 173.367C171.79 173.71 171.561 174.166 171.447 174.508C171.219 175.535 172.018 176.22 173.159 175.992C173.729 175.878 174.3 175.649 174.756 175.307C176.582 174.052 177.951 172.455 179.32 170.857C183.314 165.951 187.079 160.931 190.616 155.796C190.73 155.568 190.844 155.454 190.958 155.226C190.844 155.226 190.73 155.112 190.616 155.112ZM190.616 155.112C190.73 155.112 190.616 155.112 190.616 155.112Z" stroke="black" stroke-miterlimit="10"/>
    </g>
    <defs>
        <clipPath id="clip0">
            <rect width="300" height="300" fill="white"/>
        </clipPath>
    </defs>
</svg>
